<?xml version="1.0" encoding="UTF-8"?>
<svg width="33px" height="44px" viewBox="0 0 33 44" version="1.1" xmlns="http://www.w3.org/2000/svg" xmlns:xlink="http://www.w3.org/1999/xlink">
    <title>Document type / Video formats Copy</title>
    <g id="Document-type-/-Video-formats-Copy" stroke="none" stroke-width="1" fill="none" fill-rule="evenodd">
        <path d="M22,8.02913291e-13 L33,11 L33,11 L33,41 C33,42.6568542 31.6568542,44 30,44 L3,44 C1.34314575,44 1.97926296e-15,42.6568542 0,41 L0,3 C-2.02906125e-16,1.34314575 1.34314575,3.04359188e-16 3,0 L22,8.02913291e-13 Z" id="Combined-Shape" fill="#E6E7E8"></path>
        <path d="M32.999,10.999 L25,11 C23.3431458,11 22,9.65685425 22,8 L22,8.36664071e-13 L32.999,10.999 Z" id="Combined-Shape" fill="#000000" opacity="0.14"></path>
        <g id="Fill-3039" transform="translate(8.000000, 18.000000)" fill="#545454">
            <path d="M15.4506818,7.72959091 L13.9052273,7.72959091 L13.9052273,6.18413636 L15.4506818,6.18413636 L15.4506818,7.72959091 Z M12.3597727,10.0477727 L10.8143182,10.0477727 L10.8143182,3.86595455 L12.3597727,3.86595455 L12.3597727,10.0477727 Z M9.26886364,12.3659545 L7.72340909,12.3659545 L7.72340909,1.54777273 L9.26886364,1.54777273 L9.26886364,12.3659545 Z M6.17795455,10.0477727 L4.6325,10.0477727 L4.6325,3.86595455 L6.17795455,3.86595455 L6.17795455,10.0477727 Z M3.08704545,7.72959091 L1.54159091,7.72959091 L1.54159091,6.18413636 L3.08704545,6.18413636 L3.08704545,7.72959091 Z M15.4506818,0.00231818182 L1.54159091,0.00231818182 C0.6885,0.00231818182 -0.00386363636,0.693909091 -0.00386363636,1.54777273 L-0.00386363636,12.3659545 C-0.00386363636,13.2190455 0.6885,13.9114091 1.54159091,13.9114091 L15.4506818,13.9114091 C16.3045455,13.9114091 16.9961364,13.2190455 16.9961364,12.3659545 L16.9961364,1.54777273 C16.9961364,0.693909091 16.3045455,0.00231818182 15.4506818,0.00231818182 L15.4506818,0.00231818182 Z"></path>
        </g>
    </g>
</svg>