<svg width="33" height="44" viewBox="0 0 33 44" xmlns="http://www.w3.org/2000/svg"><g fill="none" fill-rule="evenodd"><path d="M22,8.02913291e-13 L33,11 L33,11 L33,41 C33,42.6568542 31.6568542,44 30,44 L3,44 C1.34314575,44 1.97926296e-15,42.6568542 0,41 L0,3 C-2.02906125e-16,1.34314575 1.34314575,3.04359188e-16 3,0 L22,8.02913291e-13 Z" fill="#F06A6A"/><path d="M32.999,10.999 L25,11 C23.3431458,11 22,9.65685425 22,8 L22,8.36664071e-13 L32.999,10.999 Z" fill="#000" opacity=".14"/><path d="M21.3027896,26.470511 C19.2609374,26.470511 17.6055792,28.1560007 17.6055792,30.2353285 C17.6055792,32.3145103 19.2609374,34 21.3027896,34 C23.3447135,34 25,32.3145103 25,30.2353285 C25,28.1560007 23.3447135,26.470511 21.3027896,26.470511 Z M11.6971961,26.4708759 C9.65530805,26.4708759 8,28.1560007 8,30.2353285 C8,32.3145103 9.65530805,34 11.6971961,34 C13.7391701,34 15.3945642,32.3145103 15.3945642,30.2353285 C15.3945642,28.1560007 13.7391701,26.4708759 11.6971961,26.4708759 Z M20.1971387,21.7645767 C20.1971387,23.8438971 18.5419239,25.529562 16.5,25.529562 C14.4580403,25.529562 12.8028183,23.8438971 12.8028183,21.7645767 C12.8028183,19.6856795 14.4580403,18 16.5,18 C18.5419239,18 20.1971387,19.6856795 20.1971387,21.7645767 Z" fill="#FFF"/></g></svg>