<?xml version="1.0" encoding="UTF-8"?>
<svg width="33px" height="44px" viewBox="0 0 33 44" version="1.1" xmlns="http://www.w3.org/2000/svg" xmlns:xlink="http://www.w3.org/1999/xlink">
    <title>Document type / Video formats Copy 3</title>
    <defs>
        <polygon id="path-1" points="0 0.031884 12.4319717 0.031884 12.4319717 13.2 0 13.2"></polygon>
    </defs>
    <g id="Document-type-/-Video-formats-Copy-3" stroke="none" stroke-width="1" fill="none" fill-rule="evenodd">
        <path d="M22,8.02913291e-13 L33,11 L33,11 L33,41 C33,42.6568542 31.6568542,44 30,44 L3,44 C1.34314575,44 1.97926296e-15,42.6568542 0,41 L0,3 C-2.02906125e-16,1.34314575 1.34314575,3.04359188e-16 3,0 L22,8.02913291e-13 Z" id="Combined-Shape" fill="#FF9A00"></path>
        <path d="M32.999,10.999 L25,11 C23.3431458,11 22,9.65685425 22,8 L22,8.36664071e-13 L32.999,10.999 Z" id="Combined-Shape" fill="#000000" opacity="0.14"></path>
        <g id="Group-6" transform="translate(8.000000, 18.000000)">
            <g id="Group-3" transform="translate(0.000000, 1.017480)">
                <mask id="mask-2" fill="white">
                    <use xlink:href="#path-1"></use>
                </mask>
                <g id="Clip-2"></g>
                <path d="M4.437864,7.724424 L7.873224,7.724424 C7.792344,7.453944 7.513224,6.828504 7.404744,6.490104 C7.296504,6.151704 7.147944,5.882904 7.026264,5.497224 C6.904344,5.111544 6.782664,4.726104 6.660984,4.340424 C6.539304,3.954744 6.427464,3.582504 6.324744,3.223944 C6.222504,2.865384 6.132744,2.537304 6.050904,2.239944 L6.030504,2.239944 C5.916264,2.788104 5.773944,3.330024 5.603784,3.863784 C5.414184,4.472664 5.221704,5.095224 5.025624,5.731224 C4.830504,6.366744 4.627944,7.183464 4.438104,7.724424 L4.437864,7.724424 Z M8.421864,9.884424 L3.733224,9.884424 L2.775624,13.016184 C2.748744,13.127544 2.646504,13.204344 2.532264,13.198824 L0.156264,13.198824 C0.021144,13.198824 -0.026616,13.124424 0.013704,12.975624 L4.062744,1.285704 C4.103304,1.164024 4.143864,1.025064 4.184184,0.869544 C4.240104,0.642264 4.267464,0.409224 4.265784,0.175224 C4.255944,0.106584 4.303464,0.042984 4.372344,0.033144 C4.383864,0.031464 4.395864,0.031464 4.407624,0.033144 L7.634664,0.033144 C7.729464,0.033144 7.783704,0.067224 7.797144,0.134664 L12.416904,12.995784 C12.457224,13.131384 12.416664,13.199064 12.294744,13.198824 L9.656184,13.198824 C9.562584,13.209384 9.475464,13.148424 9.452904,13.056744 L8.421864,9.884424 Z" id="Fill-1" fill="#FFFFFF" mask="url(#mask-2)"></path>
            </g>
            <path d="M13.8480233,14.014392 L13.8480233,4.734312 C13.8480233,4.612392 13.901784,4.551672 14.010504,4.551672 L16.315944,4.551672 C16.423944,4.551672 16.478184,4.612632 16.478184,4.734312 L16.478184,14.014392 C16.478184,14.149992 16.423944,14.217672 16.315944,14.2174326 L14.030664,14.2174326 C13.908744,14.2174326 13.847784,14.149752 13.8480233,14.014392 M15.162264,3.168792 C14.743224,3.185592 14.337384,3.023112 14.045784,2.722152 C13.755144,2.408712 13.601784,1.992312 13.619304,1.565112 C13.603944,1.141752 13.769784,0.732072 14.075304,0.438552 C14.377224,0.148632 14.783064,-0.008568 15.201624,0.002232 C15.628344,-0.021048 16.044984,0.137352 16.348344,0.438552 C16.631304,0.743832 16.781064,1.149192 16.764264,1.565112 C16.781784,1.993992 16.624104,2.411592 16.327944,2.722152 C16.018584,3.027192 15.595944,3.189192 15.162264,3.168792" id="Fill-4" fill="#FFFFFF"></path>
        </g>
    </g>
</svg>