<svg width="33" height="44" viewBox="0 0 33 44" xmlns="http://www.w3.org/2000/svg"><g fill="none" fill-rule="evenodd"><path d="M22,8.02913291e-13 L33,11 L33,11 L33,41 C33,42.6568542 31.6568542,44 30,44 L3,44 C1.34314575,44 1.97926296e-15,42.6568542 0,41 L0,3 C-2.02906125e-16,1.34314575 1.34314575,3.04359188e-16 3,0 L22,8.02913291e-13 Z" fill="#E6E7E8"/><path d="M32.999,10.999 L25,11 C23.3431458,11 22,9.65685425 22,8 L22,8.36664071e-13 L32.999,10.999 Z" fill="#000" opacity=".14"/><g transform="translate(8 16)" fill="#545454" fill-rule="nonzero"><path d="M8.50025,17.0002875 C8.28264904,17.0002875 8.06504808,16.9169871 7.89929735,16.7512364 L0.2492636,9.10120265 C-0.0830878666,8.76885118 -0.0830878666,8.23164882 0.2492636,7.89929735 L7.89929735,0.2492636 C8.23164882,-0.0830878666 8.76885118,-0.0830878666 9.10120265,0.2492636 L16.7512364,7.89929735 C17.0835879,8.23079881 17.0835879,8.76885118 16.7512364,9.10120265 L9.10120265,16.7512364 C8.93545192,16.9178371 8.71785096,17.0002875 8.50025,17.0002875 Z M2.05212155,8.50025 L8.50025,14.9483784 L14.9483784,8.50025 L8.50025,2.05297156 L2.05212155,8.50025 Z"/><rect x="7.65" y="5.1" width="1.7" height="5.1"/><circle cx="8.5" cy="11.9" r="1.063"/></g></g></svg>