<?xml version="1.0" encoding="UTF-8"?>
<svg width="33px" height="44px" viewBox="0 0 33 44" version="1.1" xmlns="http://www.w3.org/2000/svg" xmlns:xlink="http://www.w3.org/1999/xlink">
    <title>Document type / word</title>
    <g id="Document-type-/-word" stroke="none" stroke-width="1" fill="none" fill-rule="evenodd">
        <path d="M22,8.02913291e-13 L33,11 L33,11 L33,41 C33,42.6568542 31.6568542,44 30,44 L3,44 C1.34314575,44 1.97926296e-15,42.6568542 0,41 L0,3 C-2.02906125e-16,1.34314575 1.34314575,3.04359188e-16 3,0 L22,8.02913291e-13 Z" id="Combined-Shape" fill="#347CFF"></path>
        <path d="M32.999,10.999 L25,11 C23.3431458,11 22,9.65685425 22,8 L22,8.36664071e-13 L32.999,10.999 Z" id="Combined-Shape" fill="#000000" opacity="0.14"></path>
        <polygon id="Path-4" fill="#FFFFFF" points="10 19 12.8749031 31.9638136 14.7995427 32 16.5 23.8651519 17.9048722 31.9638136 19.8838237 31.9638136 23 19 18.6593281 19 18.6593281 20.5222296 20.4032778 20.5222296 18.935524 26.9011193 17.4206783 19 15.543697 19 14.0303769 26.9011193 12.4002021 19"></polygon>
    </g>
</svg>