<?xml version="1.0" encoding="UTF-8"?>
<svg width="33px" height="44px" viewBox="0 0 33 44" version="1.1" xmlns="http://www.w3.org/2000/svg" xmlns:xlink="http://www.w3.org/1999/xlink">
    <title>Document type / Excel</title>
    <g id="Document-type-/-Excel" stroke="none" stroke-width="1" fill="none" fill-rule="evenodd">
        <path d="M22,8.02913291e-13 L33,11 L33,11 L33,41 C33,42.6568542 31.6568542,44 30,44 L3,44 C1.34314575,44 1.97926296e-15,42.6568542 0,41 L0,3 C-2.02906125e-16,1.34314575 1.34314575,3.04359188e-16 3,0 L22,8.02913291e-13 Z" id="Combined-Shape" fill="#009E51"></path>
        <path d="M32.999,10.999 L25,11 C23.3431458,11 22,9.65685425 22,8 L22,8.36664071e-13 L32.999,10.999 Z" id="Combined-Shape" fill="#000000" opacity="0.14"></path>
        <polygon id="Path-5" fill="#FFFFFF" points="10.7951539 18 13.4167945 18 15.8681904 21.8664872 18.524763 18 21.1982317 18 17.0496825 23.9257632 22 31 19.1188962 31 15.8681904 26.0981266 13.6547599 29.2716791 15.8681904 29.2716791 15.8681904 31 10 31 14.7741597 23.9257632"></polygon>
    </g>
</svg>