<svg width="33" height="44" viewBox="0 0 33 44" xmlns="http://www.w3.org/2000/svg"><g fill="none" fill-rule="evenodd"><path d="M22,8.02913291e-13 L33,11 L33,11 L33,41 C33,42.6568542 31.6568542,44 30,44 L3,44 C1.34314575,44 1.97926296e-15,42.6568542 0,41 L0,3 C-2.02906125e-16,1.34314575 1.34314575,3.04359188e-16 3,0 L22,8.02913291e-13 Z" fill="#0071F7"/><path d="M32.999,10.999 L25,11 C23.3431458,11 22,9.65685425 22,8 L22,8.36664071e-13 L32.999,10.999 Z" fill="#000" opacity=".14"/><path d="M26.8148477,29.7686698 C27.0769994,30.1248192 27.0245691,30.5827256 26.709987,30.8371181 C26.3429746,31.0915105 25.8186711,31.040632 25.5565193,30.7353611 L23.7214572,28.4458291 L21.9388254,30.6844826 C21.6766737,31.040632 21.1523702,31.040632 20.7853578,30.7862396 C20.4183454,30.5318472 20.365915,30.0739408 20.6280668,29.7177913 L22.7252806,27.0721099 L20.6280668,24.4264285 C20.365915,24.0702791 20.4707757,23.5614942 20.7853578,23.3071018 C21.1523702,23.0527093 21.6766737,23.1544663 21.9388254,23.4597372 L23.7214572,25.7492692 L25.5565193,23.5614942 C25.8186711,23.2053448 26.2905442,23.1544663 26.709987,23.4088587 C27.0769994,23.6632512 27.0769994,24.1720361 26.8148477,24.5281855 L24.7700641,27.1229884 L26.8148477,29.7686698 L26.8148477,29.7686698 Z M17.2725246,29.4633989 C15.9093355,29.4633989 14.8082983,28.4458291 14.8082983,27.1229884 C14.8082983,25.8510262 15.9093355,24.7825779 17.2725246,24.7825779 C18.6357136,24.7825779 19.7367509,25.8510262 19.7367509,27.1229884 C19.6843205,28.4458291 18.5832832,29.4633989 17.2725246,29.4633989 Z M10.0371367,29.4633989 C8.67394769,29.4633989 7.5729104,28.4458291 7.5729104,27.1229884 C7.5729104,25.8510262 8.67394769,24.7825779 10.0371367,24.7825779 C11.4003257,24.7825779 12.501363,25.8510262 12.501363,27.1229884 C12.501363,28.4458291 11.4003257,29.4633989 10.0371367,29.4633989 Z M17.2725246,23.2562233 C15.7520445,23.2562233 14.3888555,24.0702791 13.707261,25.2913628 C13.0256665,24.0702791 11.6624775,23.2562233 10.089567,23.2562233 C9.14582081,23.2562233 8.30693526,23.5614942 7.62534075,24.0194006 L7.62534075,20.7631773 C7.62534075,20.3561494 7.25832832,20 6.83888555,20 C6.36701243,20 6,20.3561494 6,20.7631773 L6,27.1738669 C6.05243035,29.3107634 7.83506214,30.9897536 10.0371367,30.9897536 C11.6100471,30.9897536 12.9732361,30.1248192 13.6548306,28.9037355 C14.3364251,30.1248192 15.6996142,30.9897536 17.2200942,30.9897536 C19.4745991,30.9897536 21.3096613,29.2598849 21.3096613,27.0721099 C21.3620916,24.9860919 19.5270295,23.2562233 17.2725246,23.2562233 Z" fill="#FFF" fill-rule="nonzero"/></g></svg>