<svg width="33" height="44" viewBox="0 0 33 44" xmlns="http://www.w3.org/2000/svg"><g fill="none" fill-rule="evenodd"><path d="M30.4615385,13.0909091 L16.2816923,13.0909091 L11.9485385,8.74581818 C11.4713077,8.26981818 10.8290769,8 10.1538462,8 L2.53846154,8 C1.13469231,8 0,9.13781818 0,10.5454545 L0,33.4545455 C0,34.8621818 1.13469231,36 2.53846154,36 L30.4615385,36 C31.8653077,36 33,34.8621818 33,33.4545455 L33,15.6363636 C33,14.2287273 31.8653077,13.0909091 30.4615385,13.0909091 Z" fill="#E6E7E8" fill-rule="nonzero"/><g transform="translate(9 18)" fill-rule="nonzero"><path d="M1.13402062,11.1416667 L1.79553265,12.25 C1.93298969,12.4833333 2.13058419,12.6666667 2.36254296,12.8 L4.72508591,8.83333333 L0,8.83333333 C0,9.09166667 0.0687285223,9.35 0.206185567,9.58333333 L1.13402062,11.1416667 Z" fill="#0066DA"/><path d="M7.5,4.16666667 L5.13745704,0.2 C4.90549828,0.333333333 4.70790378,0.516666667 4.57044674,0.75 L0.206185567,8.08333333 C0.0712565291,8.31163467 0.000179649989,8.57017682 0,8.83333333 L4.72508591,8.83333333 L7.5,4.16666667 Z" fill="#00AC47"/><path d="M12.637457,12.8 C12.8694158,12.6666667 13.0670103,12.4833333 13.2044674,12.25 L13.4793814,11.7916667 L14.7938144,9.58333333 C14.9312715,9.35 15,9.09166667 15,8.83333333 L10.2745704,8.83333333 L11.2800687,10.75 L12.637457,12.8 Z" fill="#EA4335"/><path d="M7.5,4.16666667 L9.86254296,0.2 C9.63058419,0.0666666667 9.36426117,0 9.08934708,0 L5.91065292,0 C5.63573883,0 5.36941581,0.075 5.13745704,0.2 L7.5,4.16666667 Z" fill="#00832D"/><path d="M10.2749141,8.83333333 L4.72508591,8.83333333 L2.36254296,12.8 C2.59450172,12.9333333 2.86082474,13 3.13573883,13 L11.8642612,13 C12.1391753,13 12.4054983,12.925 12.637457,12.8 L10.2749141,8.83333333 Z" fill="#2684FC"/><path d="M12.6116838,4.41666667 L10.4295533,0.75 C10.2920962,0.516666667 10.0945017,0.333333333 9.86254296,0.2 L7.5,4.16666667 L10.2749141,8.83333333 L14.9914089,8.83333333 C14.9914089,8.575 14.9226804,8.31666667 14.7852234,8.08333333 L12.6116838,4.41666667 Z" fill="#FFBA00"/></g></g></svg>