<svg width="33" height="44" viewBox="0 0 33 44" xmlns="http://www.w3.org/2000/svg"><g fill="none" fill-rule="evenodd"><path d="M22,8.02913291e-13 L33,11 L33,11 L33,41 C33,42.6568542 31.6568542,44 30,44 L3,44 C1.34314575,44 1.97926296e-15,42.6568542 0,41 L0,3 C-2.02906125e-16,1.34314575 1.34314575,3.04359188e-16 3,0 L22,8.02913291e-13 Z" fill="#EBF5F3"/><path d="M32.999,10.999 L25,11 C23.3431458,11 22,9.65685425 22,8 L22,8.36664071e-13 L32.999,10.999 Z" fill="#000" opacity=".14"/><path d="M4.69091377 4.75441727C5.65923522 4.75441727 6.11557012 4.93815944 6.8167694 5.66165437L10.5787376 9.54327586C10.6900409 9.65811656 10.7122987 9.70405578 10.7345565 9.77295725 10.7456782 9.79593422 10.7456782 9.83038496 10.7456782 9.85334721 10.7456782 9.87632418 10.7456782 9.91077492 10.7345565 9.93373717 10.7122987 10.0026534 10.6900409 10.0485779 10.5787376 10.1634186L8.00768312 12.8277316C7.89637982 12.9425723 7.85186423 12.9655346 7.78507653 12.9885115 7.76281874 13 7.72942489 13 7.70716709 13 7.6849093 13 7.65151545 13 7.62925765 12.9885115 7.56248427 12.9655346 7.51795436 12.9425723 7.40666539 12.8277316L.116451451 5.30564379C-.0950202202 5.08745088-.017109606 4.75441727.339053881 4.75441727L4.69091377 4.75441727ZM15.3090702.0114841013C14.3407487.0114841013 13.8843995.195229776 13.1832002.918727646L9.42123204 4.80035649C9.30992875 4.91519719 9.28767095 4.96113641 9.26541316 5.03003788 9.2542771 5.05300014 9.2542771 5.08745088 9.2542771 5.11042784 9.2542771 5.1333901 9.2542771 5.16784084 9.26541316 5.1908178 9.28767095 5.25971928 9.30992875 5.3056585 9.42123204 5.4204992L11.9922865 8.07332375C12.1035755 8.18816444 12.1481054 8.2111267 12.2148788 8.23410366 12.2371366 8.24557744 12.2705304 8.24557744 12.2927882 8.24557744 12.3150603 8.24557744 12.3484399 8.24557744 12.3706977 8.23410366 12.4374854 8.2111267 12.482001 8.18816444 12.5933042 8.07332375L19.8835839.55123594C20.0949972.333038614 20.0171307 0 19.6608628 0L15.3090702 0 15.3090702.0114841013Z" transform="translate(7 20)" fill="#08CF65" fill-rule="nonzero"/></g></svg>