<svg xmlns="http://www.w3.org/2000/svg" width="33" height="44" viewBox="0 0 33 44"><g fill="none" fill-rule="evenodd"><path fill="#0054EB" d="M22,8.02913291e-13 L33,11 L33,11 L33,41 C33,42.6568542 31.6568542,44 30,44 L3,44 C1.34314575,44 6.46995335e-16,42.6568542 0,41 L0,3 C-2.02906125e-16,1.34314575 1.34314575,3.04359188e-16 3,0 L22,8.02913291e-13 Z"/><path fill="#000" d="M32.999,10.999 L25,11 C23.3431458,11 22,9.65685425 22,8 L22,8.36664071e-13 L32.999,10.999 Z" opacity=".14"/><path fill="#FFF" fill-rule="nonzero" d="M14.5418319 23.1186944 11.3892795 23.1186944C11.1515172 23.1186944 10.9577849 22.9228487 10.9577849 22.6824926L10.9577849 15 10.0859897 15 10.0859897 22.6824926C10.0859897 22.9228487 9.89225742 23.1186944 9.65449508 23.1186944L6.46671865 23.1186944C6.22015031 23.1186944 6 23.305638 6 23.5548961 6 23.8308605 6.22015031 24 6.48433067 24L14.5154138 24C14.7884002 24 15.0085505 23.8308605 14.9997445 23.5548961 15.0085505 23.305638 14.7884002 23.1186944 14.5418319 23.1186944L14.5418319 23.1186944ZM0 13C.180750113 13.5765766.723000452 14 1.36466335 14L18.6353366 14C19.2769995 14 19.8192499 13.5765766 20 13L0 13ZM18.7765641 4.56511444C18.7765641 3.9210734 18.285005 3.40015785 17.6772592 3.40015785L3.46673287 3.40015785 3.46673287 1.81846882C3.46673287 1.43014996 3.76166832 1.11760063 4.12810328 1.11760063L6.51663357 1.11760063C6.54031778 1.5409629 6.87815293 1.88476717 7.28301887 1.88476717L9.23138034 1.88476717C9.65143992 1.88476717 10 1.51539069 10 1.07024467L10 .814522494C10 .36937648 9.65143992 0 9.23138034 0L7.28301887 0C6.91479643 0 6.60153923.283662194 6.53003972.653512234L4.12810328.653512234C3.5203575.653512234 3.02879841 1.17442778 3.02879841 1.81846882L3.02879841 3.40015785 2.32274081 3.40015785C1.71499503 3.40015785 1.22343595 3.9210734 1.22343595 4.56511444L1 12 19 12 18.7765641 4.56511444Z" transform="translate(7 14)"/></g></svg>