<svg width="33" height="44" viewBox="0 0 33 44" xmlns="http://www.w3.org/2000/svg"><g fill="none" fill-rule="evenodd"><path d="M22,8.02913291e-13 L33,11 L33,11 L33,41 C33,42.6568542 31.6568542,44 30,44 L3,44 C1.34314575,44 1.97926296e-15,42.6568542 0,41 L0,3 C-2.02906125e-16,1.34314575 1.34314575,3.04359188e-16 3,0 L22,8.02913291e-13 Z" fill="#DB4437"/><path d="M32.999,10.999 L25,11 C23.3431458,11 22,9.65685425 22,8 L22,8.36664071e-13 L32.999,10.999 Z" fill="#000" opacity=".14"/><path d="M19.4999561,20.3332443 C19.4999561,16.8355763 16.7016998,14 13.2500659,14 C9.79843203,14 7,16.8355763 7,20.3332443 C7,23.8310013 9.79834414,26.6666667 13.249978,26.6666667 C16.7016119,26.6666667 19.4999561,23.8310013 19.4999561,20.3332443 L19.4999561,20.3332443 Z M13.2500659,24.1332799 C11.1821793,24.1332799 9.50004395,22.42871 9.50004395,20.3332443 C9.50004395,18.2378676 11.1821793,16.5332977 13.249978,16.5332977 C15.3177767,16.5332977 17,18.2378676 17,20.3332443 C17,22.42871 15.3178646,24.1332799 13.249978,24.1332799 L13.2500659,24.1332799 Z M21.375011,22.866631 C20.750022,25.3999287 18.874967,27.2999911 17,27.9333155 L17,33 L27,33 L27,22.866631 L21.375011,22.866631 Z" fill="#FFF" fill-rule="nonzero"/></g></svg>