<svg width="33" height="44" viewBox="0 0 33 44" xmlns="http://www.w3.org/2000/svg"><g fill="none" fill-rule="evenodd"><path d="M22,8.02913291e-13 L33,11 L33,11 L33,41 C33,42.6568542 31.6568542,44 30,44 L3,44 C1.34314575,44 1.97926296e-15,42.6568542 0,41 L0,3 C-2.02906125e-16,1.34314575 1.34314575,3.04359188e-16 3,0 L22,8.02913291e-13 Z" fill="#E6E7E8"/><path d="M32.999,10.999 L25,11 C23.3431458,11 22,9.65685425 22,8 L22,8.36664071e-13 L32.999,10.999 Z" fill="#000" opacity=".14"/><g transform="translate(6 15)" fill-rule="nonzero"><path d="M22,9.88579533 C20.8701675,5.93016347 16.8360905,0.295588565 16.8360905,0.295588565 C16.8360905,0.295588565 14.3341297,0 11.0097513,0 C7.685373,0 5.16390955,0.295588565 5.16390955,0.295588565 C5.16390955,0.295588565 1.13115468,5.93114876 0,9.88579533 C4.53850199,17.7215197 10.7978664,21.9454803 11.0001653,22 C11.1984975,21.9458088 17.1154083,17.7918041 22,9.88579533 Z" fill="#EB1000"/><path d="M10.6547367,12.4275286 L9.15270077,11.2881989 C9.13583618,11.274672 9.12952138,11.2519718 9.13700034,11.2317596 C9.1444793,11.2115474 9.16408915,11.1983172 9.18575614,11.1988654 L12.8218466,11.1988654 C12.8435136,11.1983172 12.8631234,11.2115474 12.8706024,11.2317596 C12.8780814,11.2519718 12.8717666,11.274672 12.854902,11.2881989 L11.3528661,12.4275286 L11.7495305,13.5832798 L14.6541056,14.0897216 C14.6796552,14.0940804 14.7044208,14.0786659 14.711622,14.0539225 L17.0476448,5.97712921 L13.6003005,8.30702396 L13.7397942,10.8809435 C13.7446655,10.9078804 13.7269454,10.9337372 13.6999351,10.9391045 C13.6729249,10.9444719 13.6465587,10.9273758 13.6406281,10.9006494 L12.2192472,6.88885571 L17.0671475,5.23782936 L14.5790699,3.86794058 L11.0028097,5.08018213 L7.3977913,3.86794058 L4.93086921,5.2371725 L9.78471941,6.88885571 L8.36333859,10.9006494 C8.35537972,10.9250763 8.33026371,10.9397031 8.30492458,10.9346678 C8.27958546,10.9296325 8.26206346,10.9065329 8.26417249,10.8809435 L8.40366614,8.30702396 L4.95665239,5.97712921 L7.29631132,14.0532657 C7.30376383,14.0778195 7.32834004,14.0931161 7.35382766,14.0890647 L10.2550973,13.582623 L10.6517617,12.4275286 L10.6547367,12.4275286 Z" fill="#FFF"/><polygon fill="#FFF" points="8.68033957 14.5432858 9.29847495 16.1555572 12.7028473 16.1555572 13.3206521 14.5432858 11.0004958 14.1839815"/></g></g></svg>