<svg width="33" height="44" viewBox="0 0 33 44" xmlns="http://www.w3.org/2000/svg"><g fill="none" fill-rule="evenodd"><path d="M22,8.02913291e-13 L33,11 L33,11 L33,41 C33,42.6568542 31.6568542,44 30,44 L3,44 C1.34314575,44 1.97926296e-15,42.6568542 0,41 L0,3 C-2.02906125e-16,1.34314575 1.34314575,3.04359188e-16 3,0 L22,8.02913291e-13 Z" fill="#E9EEF3"/><path d="M32.999,10.999 L25,11 C23.3431458,11 22,9.65685425 22,8 L22,8.36664071e-13 L32.999,10.999 Z" fill="#000" opacity=".14"/><g transform="translate(7 18)" fill-rule="nonzero"><path d="M8.93065131,0.201891645 L1.47412248,3.15248263 C1.05946265,3.31659054 1.06375847,3.8798331 1.4810184,4.03799507 L8.96874846,6.87755916 C9.62668745,7.12707237 10.3593511,7.12707237 11.0171771,6.87755916 L18.5050202,4.03799507 C18.9221671,3.8798331 18.9265759,3.31659054 18.5118031,3.15248263 L11.0553873,0.201891645 C10.3750648,-0.0672972151 9.61086074,-0.0672972151 8.93065131,0.201891645" fill="#FCB400"/><path d="M10.6572664,8.4281843 L10.6572664,15.5217972 C10.6572664,15.8592022 11.0130282,16.090229 11.3409803,15.9659048 L19.6845963,12.8688275 C19.875082,12.7966114 20,12.6206116 20,12.42472 L20,5.331107 C20,4.99370201 19.6442381,4.76267526 19.3162861,4.88699943 L10.9726701,7.98407673 C10.7822974,8.05629286 10.6572664,8.23229264 10.6572664,8.4281843" fill="#18BFFF"/><path d="M8.70898692,8.79419466 L6.23278492,9.93754461 L5.98136631,10.0537607 L0.754255831,12.4488929 C0.42291233,12.6017576 0,12.3708389 0,12.0188394 L0,5.36090156 C0,5.23355036 0.0682809535,5.12360455 0.159849782,5.04079384 C0.198059984,5.00414524 0.241357344,4.97398311 0.286350423,4.95009125 C0.411268392,4.87841566 0.58943194,4.85928055 0.740916174,4.91657778 L8.66738527,7.91992546 C9.07028812,8.07279014 9.10194154,8.61268137 8.70898692,8.79419466" fill="#F82B60"/><path d="M8.70898692,8.79419466 L6.23278492,9.93754461 L0.159849782,5.04079384 C0.198059984,5.00414524 0.241357344,4.97398311 0.286350423,4.95009125 C0.411268392,4.87841566 0.58943194,4.85928055 0.740916174,4.91657778 L8.66738527,7.91992546 C9.07028812,8.07279014 9.10194154,8.61268137 8.70898692,8.79419466" fill-opacity=".25" fill="#000"/></g></g></svg>