<?xml version="1.0" encoding="UTF-8"?>
<svg width="33px" height="44px" viewBox="0 0 33 44" version="1.1" xmlns="http://www.w3.org/2000/svg" xmlns:xlink="http://www.w3.org/1999/xlink">
    <title>Document type / powerpoint</title>
    <g id="Document-type-/-powerpoint" stroke="none" stroke-width="1" fill="none" fill-rule="evenodd">
        <path d="M22,8.02913291e-13 L33,11 L33,11 L33,41 C33,42.6568542 31.6568542,44 30,44 L3,44 C1.34314575,44 1.97926296e-15,42.6568542 0,41 L0,3 C-2.02906125e-16,1.34314575 1.34314575,3.04359188e-16 3,0 L22,8.02913291e-13 Z" id="Combined-Shape" fill="#FF7300"></path>
        <path d="M17.0043799,19 C18.2283991,19 19.2003406,19.3779762 19.9202044,20.1339286 C20.6400681,20.889881 21,21.889881 21,23.1339286 C21,24.4077381 20.6475928,25.3988095 19.9427785,26.1071429 C19.2379641,26.8154762 18.2509732,27.1696429 16.9818058,27.1696429 L16.9818058,27.1696429 L15.0481475,27.1696429 L15.0481475,32 L12.8131174,32 L12.813,20.821 L11,20.8214286 L11,19 Z M17.1406674,20.8214286 L15.0415534,20.8214286 L15.0415534,25.3571429 L17.0934204,25.3571429 C17.7008811,25.3571429 18.164351,25.1681548 18.4838303,24.7901786 C18.8033096,24.4122024 18.9630493,23.8660714 18.9630493,23.1517857 C18.9630493,22.4494048 18.8010598,21.8883929 18.4770808,21.46875 C18.1531018,21.0491071 17.7076306,20.8333333 17.1406674,20.8214286 L17.1406674,20.8214286 Z" id="Combined-Shape" fill="#FFFFFF" fill-rule="nonzero"></path>
        <path d="M32.999,10.999 L25,11 C23.3431458,11 22,9.65685425 22,8 L22,8.36664071e-13 L32.999,10.999 Z" id="Combined-Shape" fill="#000000" opacity="0.14"></path>
    </g>
</svg>