<svg width="33" height="44" viewBox="0 0 33 44" xmlns="http://www.w3.org/2000/svg"><g fill="none" fill-rule="evenodd"><path d="M22,8.02913291e-13 L33,11 L33,11 L33,41 C33,42.6568542 31.6568542,44 30,44 L3,44 C1.34314575,44 1.97926296e-15,42.6568542 0,41 L0,3 C-2.02906125e-16,1.34314575 1.34314575,3.04359188e-16 3,0 L22,8.02913291e-13 Z" fill="#E6E7E8"/><path d="M32.999,10.999 L25,11 C23.3431458,11 22,9.65685425 22,8 L22,8.36664071e-13 L32.999,10.999 Z" fill="#000" opacity=".14"/><g transform="translate(7 20)" fill-rule="nonzero"><path d="M2.48792826,11.9413923 C1.58782803,11.9433289 0.756298521,11.4628123 0.311383147,10.6836055 C-0.127118842,9.90919395 -0.100823666,8.95704044 0.379756292,8.20780045 L4.86199579,1.19837825 C5.32904459,0.431429749 6.17433922,-0.0259528546 7.07462673,0.00114018361 C7.97425892,0.0226095256 8.7925541,0.524919726 9.21603564,1.31564327 C9.63387153,2.10245375 9.58164204,3.04908511 9.08118861,3.78766562 L4.60179799,10.7970878 C4.14013025,11.5135081 3.34271933,11.9451625 2.48792826,11.9413923 L2.48792826,11.9413923 Z" fill="#F62B54"/><path d="M10.1761086,11.941376 C9.27206364,11.941376 8.44019038,11.4600135 8.00336195,10.6864426 C7.56583242,9.91413123 7.59213148,8.96438311 8.07173509,8.21725731 L12.545428,1.22391176 C13.005734,0.445957101 13.8535351,-0.0221634669 14.7599581,0.00114018361 C15.6716001,0.0209995827 16.4977756,0.528832789 16.9156115,1.32320875 C17.3305985,2.11758472 17.2698223,3.06989019 16.7541749,3.80657933 L12.2814316,10.7999249 C11.8212245,11.5132424 11.0274943,11.9435789 10.1761086,11.941376 Z" fill="#FC0"/><ellipse fill="#00CA72" cx="17.692" cy="9.75" rx="2.308" ry="2.25"/></g></g></svg>