<svg width="33" height="44" viewBox="0 0 33 44" xmlns="http://www.w3.org/2000/svg" xmlns:xlink="http://www.w3.org/1999/xlink"><defs><linearGradient x1="89.616%" y1="13.648%" x2="34.888%" y2="50%" id="b"><stop stop-color="#B7B7B7" offset="0%"/><stop stop-color="#262626" offset="100%"/></linearGradient><linearGradient x1="94.308%" y1="32.538%" x2="9.972%" y2="44.64%" id="c"><stop stop-color="#616161" offset="0%"/><stop stop-color="#ACACAC" offset="100%"/></linearGradient><linearGradient x1="53.575%" y1="41.375%" x2="-3.941%" y2="41.375%" id="e"><stop stop-color="#3C3C3C" offset="0%"/><stop stop-color="silver" offset="100%"/></linearGradient><linearGradient x1="73.47%" y1="111.633%" x2="36.445%" y2="5.428%" id="f"><stop stop-color="#5E5E5E" offset="0%"/><stop stop-color="#2D2D2D" offset="100%"/></linearGradient><path d="M10.7116935,0 C13.7069076,0 16.414993,1.18352977 18.3589075,3.09132512 L13.6712277,7.55638089 C12.9308537,6.75475916 11.878806,6.25403226 10.7116935,6.25403226 C8.47026371,6.25403226 6.65322581,8.10085767 6.65322581,10.3790323 C6.65322581,12.6572069 8.47026371,14.5040323 10.7116935,14.5040323 C11.8811976,14.5040323 12.9351649,14.0012511 13.6757752,13.1967518 L18.2950309,17.5958386 C16.3558867,19.467146 13.6742399,20.625 10.7116935,20.625 C4.79578856,20.625 0,16.0079365 0,10.3125 C0,4.61706352 4.79578856,0 10.7116935,0 Z" id="a"/></defs><g fill="none" fill-rule="evenodd"><path d="M22,8.02913291e-13 L33,11 L33,11 L33,41 C33,42.6568542 31.6568542,44 30,44 L3,44 C1.34314575,44 1.97926296e-15,42.6568542 0,41 L0,3 C-2.02906125e-16,1.34314575 1.34314575,3.04359188e-16 3,0 L22,8.02913291e-13 Z" fill="#E6E7E8"/><path d="M32.999,10.999 L25,11 C23.3431458,11 22,9.65685425 22,8 L22,8.36664071e-13 L32.999,10.999 Z" fill="#000" opacity=".14"/><g style="mix-blend-mode:multiply" transform="translate(7.688 14.688)"><mask id="d" fill="#fff"><use xlink:href="#a"/></mask><use fill="url(#b)" fill-rule="nonzero" xlink:href="#a"/><path d="M18.9666364,3.03620257 C13.1007924,3.4159785 9.24911007,5.10894972 7.41158959,8.11511624 C5.57406912,11.1212828 9.25131915,11.8980989 18.4433397,10.4455645 L18.9666364,3.03620257 Z" fill="url(#c)" fill-rule="nonzero" mask="url(#d)"/><path d="M-0.958740234,8.64919355 C-0.958740234,8.64919355 2.01766869,10.733871 7.97048655,14.9032258 L11.1025706,13.3064516 L15.9310972,11.3949487 L22.7687161,19.7982847 C12.2463103,24.2687673 6.69285928,26.3728067 6.108363,26.1104028 C5.52386671,25.8479988 3.0866463,22.6279415 -1.20329826,16.4502308 L-1.50763136,11.3949487 C-1.14170394,9.56444525 -0.958740234,8.64919355 -0.958740234,8.64919355 Z" stroke="#979797" stroke-width=".5" fill="url(#e)" fill-rule="nonzero" mask="url(#d)"/><path d="M8.5855399,0.138420759 C6.02412139,2.65233355 4.74341214,5.00568611 4.74341214,7.19847845 C4.74341214,10.487667 6.19698604,13.3659668 9.93955551,14.3952676 C11.8997448,13.774733 13.1448518,13.3754528 13.6748764,13.1974271 C11.2816021,15.98836 8.43352681,16.7343789 5.13065067,15.4354839 C1.82777454,14.1365888 -0.711236769,11.578428 -2.48638325,7.76100154 L3.50424883,-0.532258065 L8.5855399,0.138420759 Z" fill="url(#f)" fill-rule="nonzero" mask="url(#d)"/></g></g></svg>