<svg width="33" height="44" viewBox="0 0 33 44" xmlns="http://www.w3.org/2000/svg"><g fill="none" fill-rule="evenodd"><path d="M22,8.02913291e-13 L33,11 L33,11 L33,41 C33,42.6568542 31.6568542,44 30,44 L3,44 C1.34314575,44 1.97926296e-15,42.6568542 0,41 L0,3 C-2.02906125e-16,1.34314575 1.34314575,3.04359188e-16 3,0 L22,8.02913291e-13 Z" fill="#0078D4"/><path d="M32.999,10.999 L25,11 C23.3431458,11 22,9.65685425 22,8 L22,8.36664071e-13 L32.999,10.999 Z" fill="#000" opacity=".14"/><path d="M13.195153,30.9256546 C11.9588727,30.6190561 11.2710076,29.6418997 11.2682842,28.1929429 C11.2682842,27.7299798 11.3012272,27.5081345 11.4182338,27.2092319 C11.7031052,26.4785739 12.458825,25.9285749 13.4524954,25.7248281 C13.9469682,25.6242917 14.0992803,25.5164507 14.0992803,25.2645716 C14.0992803,25.1859817 14.1586039,24.9514185 14.2310522,24.7437911 C14.5577586,23.7990164 15.1631022,23.0129215 15.8083777,22.6920725 C16.4846274,22.3550489 16.8268538,22.2799482 17.6445549,22.2837962 C18.8075667,22.2899595 19.3865625,22.5406972 20.1973075,23.3868921 L20.6437767,23.8529532 L21.0425377,23.7158284 C22.9760017,23.0506512 24.9040189,24.1826395 25.0602028,26.0753196 L25.1024643,26.5929695 L25.4830147,26.7285616 C26.5708548,27.1160327 27.0816678,27.9287047 26.9894012,29.1246411 C26.928962,29.9061379 26.5612082,30.5304549 25.9790953,30.8397601 L25.7046908,30.9857547 L19.6175242,30.9976899 C14.939884,31.0069186 13.4528564,30.9896027 13.195514,30.9256546 L13.195153,30.9256546 L13.195153,30.9256546 Z M8.11714407,30.0609698 C7.37536929,29.8753215 6.58906899,29.1866651 6.22049483,28.4005377 C6.01161535,27.9541078 6,27.8875183 6,27.0982929 C6,26.3468624 6.01821051,26.2270862 6.18328632,25.8538656 C6.53364998,25.0677381 7.20717636,24.5003906 8.04932223,24.2758713 C8.2279821,24.2292391 8.39463287,24.1533558 8.42098069,24.1086802 C8.44732851,24.0643959 8.47754812,23.8205715 8.48647291,23.5675185 C8.54536996,21.9941548 9.52857345,20.6079395 10.9004975,20.1627162 C11.6418786,19.9227398 12.6142214,19.8996193 13.4203071,20.2381756 C13.6760746,20.3452666 13.6473971,20.3687457 14.188036,19.6238698 C14.508541,19.1832445 15.1134908,18.7171835 15.6424816,18.438336 C16.2137338,18.1371181 16.8070683,17.9984607 17.5166548,18.0000129 C19.501666,18.0054066 21.2115181,19.3084014 21.843997,21.2985199 C22.0459204,21.9340547 22.0354534,22.1127897 21.7978637,22.1181704 C21.6940146,22.1204531 21.3959856,22.1805532 21.1351652,22.2510558 L20.6611997,22.380452 L20.2298567,21.9263588 C19.0118197,20.6480171 17.0260538,20.3714523 15.336709,21.2453983 C14.6620014,21.5951072 14.1198204,22.0958326 13.7105597,22.7494333 C13.4191587,23.2154944 13.046319,24.0851685 13.046319,24.3004918 C13.046319,24.4533997 12.9281312,24.5304244 12.4243399,24.7037461 C10.8636828,25.2410599 9.95296037,26.4832045 9.95450252,28.0720253 C9.95450252,28.6497427 10.0963476,29.3584542 10.293218,29.7624586 C10.3680288,29.9153991 10.4087153,30.0598285 10.3850909,30.0848403 C10.3246188,30.1491797 8.38341126,30.1268419 8.11445351,30.0601872 L8.11714407,30.0609698 Z" fill="#FFF"/></g></svg>