<?xml version="1.0" encoding="UTF-8"?>
<svg width="33px" height="44px" viewBox="0 0 33 44" version="1.1" xmlns="http://www.w3.org/2000/svg" xmlns:xlink="http://www.w3.org/1999/xlink">
    <title>Document type / Video formats Copy 5</title>
    <defs>
        <polygon id="path-1" points="0 0.13728 9.60478547 0.13728 9.60478547 13.476252 0 13.476252"></polygon>
    </defs>
    <g id="Document-type-/-Video-formats-Copy-5" stroke="none" stroke-width="1" fill="none" fill-rule="evenodd">
        <path d="M22,8.02913291e-13 L33,11 L33,11 L33,41 C33,42.6568542 31.6568542,44 30,44 L3,44 C1.34314575,44 1.97926296e-15,42.6568542 0,41 L0,3 C-2.02906125e-16,1.34314575 1.34314575,3.04359188e-16 3,0 L22,8.02913291e-13 Z" id="Combined-Shape" fill="#31A8FF"></path>
        <path d="M32.999,10.999 L25,11 C23.3431458,11 22,9.65685425 22,8 L22,8.36664071e-13 L32.999,10.999 Z" id="Combined-Shape" fill="#000000" opacity="0.14"></path>
        <g id="Group-6" transform="translate(7.000000, 18.000000)">
            <g id="Group-3" transform="translate(0.000000, 0.102720)">
                <mask id="mask-2" fill="white">
                    <use xlink:href="#path-1"></use>
                </mask>
                <g id="Clip-2"></g>
                <path d="M2.801184,2.635992 L2.801184,6.837432 C2.977104,6.851112 3.139584,6.857832 3.288144,6.857832 L3.957744,6.857832 C4.449024,6.865032 4.938624,6.796632 5.409024,6.654792 C5.811264,6.535512 6.170784,6.302952 6.444864,5.984952 C6.727824,5.613432 6.868224,5.152392 6.840144,4.686072 C6.850944,4.293432 6.748704,3.906072 6.545904,3.569832 C6.332304,3.244872 6.024144,2.993592 5.662944,2.849832 C5.191104,2.666232 4.687104,2.579832 4.181184,2.595432 C3.856464,2.595432 3.568944,2.598792 3.318624,2.605512 C3.068304,2.612232 2.895984,2.622312 2.801184,2.635992 M-9.59999998e-05,13.312392 L-9.59999998e-05,0.342552 C-9.59999998e-05,0.247992 0.040704,0.200472 0.121824,0.200472 C0.338064,0.200472 0.595104,0.197112 0.893184,0.190392 C1.191024,0.183672 1.512384,0.176952 1.857264,0.170232 C2.202384,0.163512 2.567664,0.156792 2.953584,0.149832 C3.339264,0.142872 3.721344,0.139752 4.100064,0.139752 C4.982064,0.117192 5.860944,0.247752 6.698064,0.525432 C7.333104,0.740232 7.912224,1.093752 8.393424,1.560552 C8.801184,1.965192 9.116304,2.453112 9.317184,2.991192 C9.506784,3.515112 9.603024,4.068072 9.601104,4.625112 C9.639504,5.575032 9.376704,6.512712 8.850144,7.304232 C8.346384,8.010792 7.638144,8.545512 6.820704,8.836632 C5.909904,9.164712 4.947264,9.326232 3.979104,9.313752 C3.681264,9.313752 3.471744,9.310392 3.350304,9.303672 C3.229104,9.296952 3.046464,9.293592 2.802624,9.293592 L2.802624,13.291992 C2.815104,13.380312 2.753664,13.462152 2.665344,13.474632 C2.650224,13.476792 2.635104,13.476792 2.619744,13.474632 L0.142224,13.474632 C0.047424,13.474632 -9.59999998e-05,13.420632 -9.59999998e-05,13.312392" id="Fill-1" fill="#FFFFFF" mask="url(#mask-2)"></path>
            </g>
            <path d="M17.501184,6.128232 C17.030304,5.934552 16.540224,5.791752 16.038864,5.701992 C15.576144,5.595912 15.103344,5.541432 14.628384,5.539512 C14.371584,5.532792 14.115264,5.563512 13.867104,5.630952 C13.709664,5.665992 13.569504,5.755752 13.471584,5.884152 C13.405584,5.987112 13.370304,6.106872 13.370304,6.229272 C13.374144,6.348072 13.416864,6.462072 13.491984,6.553992 C13.610544,6.693192 13.755744,6.807432 13.918464,6.889992 C14.207904,7.045752 14.506224,7.184712 14.811504,7.305912 C15.492864,7.533912 16.143744,7.844232 16.749744,8.229432 C17.162784,8.490312 17.504544,8.849352 17.744544,9.274632 C17.946144,9.677592 18.046944,10.123272 18.038544,10.573512 C18.050784,11.168232 17.880864,11.752632 17.551344,12.247992 C17.199024,12.751032 16.709424,13.142232 16.140864,13.374552 C15.415824,13.665432 14.638224,13.803432 13.857264,13.780152 C13.281504,13.785912 12.706704,13.731672 12.142224,13.617672 C11.671584,13.534872 11.211744,13.398792 10.771824,13.211832 C10.681344,13.165032 10.625904,13.070232 10.629744,12.968232 L10.629744,10.776312 C10.625184,10.732632 10.644624,10.689672 10.680624,10.664712 C10.716144,10.644552 10.760544,10.648632 10.791984,10.674792 C11.306544,10.961832 11.861184,11.170632 12.437184,11.293992 C12.921984,11.415192 13.419264,11.479752 13.918944,11.485992 C14.276784,11.508312 14.635104,11.445672 14.964384,11.303352 C15.170784,11.209272 15.302784,11.002392 15.300144,10.775352 C15.282624,10.568232 15.170304,10.381032 14.996064,10.267992 C14.611824,10.016472 14.195184,9.818472 13.757424,9.679512 C13.120224,9.457752 12.516144,9.150312 11.961264,8.766072 C11.564544,8.490312 11.237904,8.125272 11.007504,7.700472 C10.807584,7.300632 10.706544,6.858552 10.713024,6.411672 C10.711824,5.874552 10.859424,5.347752 11.139264,4.889352 C11.458464,4.384392 11.916864,3.982632 12.459264,3.732312 C13.088064,3.388632 13.794624,3.212472 14.511024,3.220152 C15.081504,3.190152 15.653184,3.198072 16.222704,3.244152 C16.685904,3.338472 17.135904,3.488472 17.562864,3.691272 C17.618544,3.707112 17.663904,3.748392 17.684544,3.802872 C17.697984,3.852552 17.705184,3.903672 17.704944,3.955032 L17.704944,6.006552 C17.707584,6.055032 17.684544,6.101592 17.643984,6.128232 C17.600544,6.155832 17.545104,6.155832 17.501664,6.128232 L17.501184,6.128232 Z" id="Fill-4" fill="#FFFFFF"></path>
        </g>
    </g>
</svg>