<?xml version="1.0" encoding="UTF-8"?>
<svg width="33px" height="44px" viewBox="0 0 33 44" version="1.1" xmlns="http://www.w3.org/2000/svg" xmlns:xlink="http://www.w3.org/1999/xlink">
    <title>Document type / Video formats Copy 4</title>
    <defs>
        <polygon id="path-1" points="0.103073751 0.200754506 9.42999176 0.200754506 9.42999176 14.64 0.103073751 14.64"></polygon>
    </defs>
    <g id="Document-type-/-Video-formats-Copy-4" stroke="none" stroke-width="1" fill="none" fill-rule="evenodd">
        <path d="M22,8.02913291e-13 L33,11 L33,11 L33,41 C33,42.6568542 31.6568542,44 30,44 L3,44 C1.34314575,44 1.97926296e-15,42.6568542 0,41 L0,3 C-2.02906125e-16,1.34314575 1.34314575,3.04359188e-16 3,0 L22,8.02913291e-13 Z" id="Combined-Shape" fill="#FF3366"></path>
        <path d="M32.999,10.999 L25,11 C23.3431458,11 22,9.65685425 22,8 L22,8.36664071e-13 L32.999,10.999 Z" id="Combined-Shape" fill="#000000" opacity="0.14"></path>
        <g id="Group-6" transform="translate(9.000000, 17.000000)">
            <path d="M2.667432,1.479888 L2.667432,14.199888 C2.667432,14.335488 2.606472,14.403168 2.484552,14.4029286 L0.162312,14.4029286 C0.053352,14.4029286 7.2e-05,14.335488 7.2e-05,14.199888 L7.2e-05,1.479888 C7.2e-05,1.371648 0.060552,1.317408 0.182472,1.317408 L2.504712,1.317408 C2.583672,1.306608 2.656392,1.361808 2.667192,1.440528 C2.668872,1.453728 2.668872,1.466928 2.667192,1.479888 L2.667432,1.479888 Z" id="Fill-1" fill="#FFFFFF"></path>
            <g id="Group-5" transform="translate(4.800000, 0.039240)">
                <mask id="mask-2" fill="white">
                    <use xlink:href="#path-1"></use>
                </mask>
                <g id="Clip-4"></g>
                <path d="M6.75144,12.1224 L6.75144,6.58104 C6.60504,6.552 6.45648,6.53184 6.30768,6.52032 C6.1692,6.5064 6.03,6.49944 5.8908,6.49992 C5.39808,6.49488 4.9116,6.60624 4.47,6.82464 C3.50208,7.28592 2.91432,8.292 2.98824,9.36168 C2.97816,9.804 3.05064,10.2444 3.20136,10.66056 C3.324,10.99584 3.51768,11.30064 3.76944,11.55384 C4.01064,11.78664 4.30248,11.9604 4.62216,12.0612 C4.95984,12.17064 5.31264,12.22536 5.6676,12.2237175 C5.85672,12.2237175 6.03288,12.21696 6.1956,12.20328 C6.3828,12.19176 6.56856,12.16464 6.7512,12.1224 L6.75144,12.1224 Z M5.40432,14.63928 C4.47,14.65368 3.54456,14.46 2.69448,14.07192 C1.90296,13.70568 1.24128,13.10736 0.79704,12.35688 C0.3084,11.48016 0.06984,10.48656 0.1068,9.4836 C0.09912,8.55168 0.3372,7.6344 0.79704,6.82392 C1.27056,5.99832 1.9668,5.3232 2.80656,4.87536 C3.78888,4.36392 4.88616,4.11264 5.99304,4.14552 C6.06048,4.14552 6.14856,4.14888 6.25704,4.1556 C6.36528,4.16256 6.6024,4.17264 6.75144,4.18608 L6.75144,0.34392 C6.75144,0.24936 6.792,0.20184 6.87336,0.20184 L9.2268,0.20184 C9.28584,0.19344 9.34008,0.23472 9.34848,0.29352 C9.34992,0.30336 9.34992,0.31344 9.34848,0.32352 L9.34848,12.16296 C9.34848,12.39312 9.35856,12.64344 9.37896,12.91392 C9.39936,13.18416 9.4164,13.42776 9.4296,13.64448 C9.43488,13.73088 9.3864,13.81152 9.30768,13.84752 C8.68056,14.12184 8.02512,14.32584 7.35288,14.45592 C6.71016,14.57472 6.05784,14.63616 5.40432,14.63928 L5.40432,14.63928 Z" id="Fill-3" fill="#FFFFFF" mask="url(#mask-2)"></path>
            </g>
        </g>
    </g>
</svg>