<svg width="33" height="44" viewBox="0 0 33 44" xmlns="http://www.w3.org/2000/svg"><defs><linearGradient x1="0%" y1="68.01%" x2="100%" y2="68.01%" id="a"><stop stop-color="#8930FD" offset="0%"/><stop stop-color="#49CCF9" offset="100%"/></linearGradient><linearGradient x1="0%" y1="68.01%" x2="100%" y2="68.01%" id="b"><stop stop-color="#FF02F0" offset="0%"/><stop stop-color="#FFC800" offset="100%"/></linearGradient></defs><g fill="none" fill-rule="evenodd"><path d="M22,8.02913291e-13 L33,11 L33,11 L33,41 C33,42.6568542 31.6568542,44 30,44 L3,44 C1.34314575,44 1.97926296e-15,42.6568542 0,41 L0,3 C-2.02906125e-16,1.34314575 1.34314575,3.04359188e-16 3,0 L22,8.02913291e-13 Z" fill="#E6E7E8"/><path d="M32.999,10.999 L25,11 C23.3431458,11 22,9.65685425 22,8 L22,8.36664071e-13 L32.999,10.999 Z" fill="#000" opacity=".14"/><g transform="translate(8 14)" fill-rule="nonzero"><path d="M0,16.9020925 L3.32155313,14.3105141 C5.08625901,16.6562904 6.96117182,17.7375355 9.04812834,17.7375355 C11.1239247,17.7375355 12.9458266,16.6690778 14.631016,14.3417722 L18,16.8708344 C15.5684724,20.2268148 12.5468496,22 9.04812834,22 C5.56056731,22 2.50964892,20.2381813 0,16.9020925 Z" fill="url(#a)"/><polygon fill="url(#b)" points="9.03696815 5.63781968 3.12485468 10.8266598 0.39200186 7.59855335 9.04952337 0 17.6386887 7.60423663 14.8932806 10.8209765"/></g></g></svg>