<svg width="33" height="44" viewBox="0 0 33 44" xmlns="http://www.w3.org/2000/svg"><g fill="none" fill-rule="evenodd"><path d="M22,8.02913291e-13 L33,11 L33,11 L33,41 C33,42.6568542 31.6568542,44 30,44 L3,44 C1.34314575,44 1.97926296e-15,42.6568542 0,41 L0,3 C-2.02906125e-16,1.34314575 1.34314575,3.04359188e-16 3,0 L22,8.02913291e-13 Z" fill="#673AB7"/><path d="M32.999,10.999 L25,11 C23.3431458,11 22,9.65685425 22,8 L22,8.36664071e-13 L32.999,10.999 Z" fill="#000" opacity=".14"/><path d="M11.671875,29.784091 L26.971875,29.784091 L26.971875,27.7386364 L11.671875,27.7386364 L11.671875,29.784091 Z M26.971875,22.625 L26.971875,24.6704545 L11.671875,24.6704545 L11.671875,22.625 L26.971875,22.625 Z M26.971875,17.5113637 L26.971875,19.5568182 L11.671875,19.5568182 L11.671875,17.5113637 L26.971875,17.5113637 Z M9.09375,18.5340909 C9.09375,19.3803978 8.40023437,20.0681818 7.546875,20.0681818 C6.69351564,20.0681818 6,19.3803978 6,18.5340909 C6,17.6877841 6.69351564,17 7.546875,17 C8.40023437,17 9.09375,17.6877841 9.09375,18.5340909 Z M9.09375,23.6477273 C9.09375,24.4940341 8.40023437,25.1818182 7.546875,25.1818182 C6.69351564,25.1818182 6,24.4940341 6,23.6477273 C6,22.8014205 6.69351564,22.1136364 7.546875,22.1136364 C8.40023437,22.1136364 9.09375,22.8014205 9.09375,23.6477273 Z M9.09375,28.7613637 C9.09375,29.6076705 8.40023437,30.2954546 7.546875,30.2954546 C6.69351564,30.2954546 6,29.6076705 6,28.7613637 C6,27.9150569 6.69351564,27.2272728 7.546875,27.2272728 C8.40023437,27.2272728 9.09375,27.9150569 9.09375,28.7613637 Z" fill="#FFF" fill-rule="nonzero"/></g></svg>