<svg width="33" height="44" viewBox="0 0 33 44" xmlns="http://www.w3.org/2000/svg"><g fill="none" fill-rule="evenodd"><path d="M22,8.02913291e-13 L33,11 L33,11 L33,41 C33,42.6568542 31.6568542,44 30,44 L3,44 C1.34314575,44 1.97926296e-15,42.6568542 0,41 L0,3 C-2.02906125e-16,1.34314575 1.34314575,3.04359188e-16 3,0 L22,8.02913291e-13 Z" fill="#2684FF"/><path d="M32.999,10.999 L25,11 C23.3431458,11 22,9.65685425 22,8 L22,8.36664071e-13 L32.999,10.999 Z" fill="#000" opacity=".14"/><path d="M15.0243902,32.8987598 C15.023184,33.1927593 14.9019033,33.4741828 14.6873602,33.6808149 C14.4728171,33.8874469 14.1826825,34.0022683 13.8810976,33.999966 L9.125,33.999966 C8.50294062,33.9974399 8,33.5051632 8,32.8987598 L8,19.1011352 C8,18.4947317 8.50294062,18.0024551 9.125,18 L13.8810976,18 C14.5039025,18.0024432 15.0081645,18.4940099 15.0106707,19.1011352 L15.0243902,32.8987598 Z M26,26.5638892 C26,26.8582604 25.8791326,27.1403845 25.6643199,27.3472762 C25.4495073,27.5541679 25.1586587,27.6685997 24.8567073,27.6651834 L20.1006098,27.6651834 C19.4778048,27.6625811 18.9735429,27.1710144 18.9710366,26.5638892 L18.9710366,19.1011352 C18.9735429,18.4940099 19.4778048,18.0024432 20.1006098,18 L24.8567073,18 C25.4787667,18.0024551 25.9817124,18.4947317 25.9817073,19.1011352 L26,26.5638892 Z" fill="#FFF" fill-rule="nonzero"/></g></svg>