<?xml version="1.0" encoding="UTF-8"?>
<svg width="33px" height="44px" viewBox="0 0 33 44" version="1.1" xmlns="http://www.w3.org/2000/svg" xmlns:xlink="http://www.w3.org/1999/xlink">
    <title>Document type / Video formats</title>
    <g id="Document-type-/-Video-formats" stroke="none" stroke-width="1" fill="none" fill-rule="evenodd">
        <path d="M22,8.02913291e-13 L33,11 L33,11 L33,41 C33,42.6568542 31.6568542,44 30,44 L3,44 C1.34314575,44 1.97926296e-15,42.6568542 0,41 L0,3 C-2.02906125e-16,1.34314575 1.34314575,3.04359188e-16 3,0 L22,8.02913291e-13 Z" id="Combined-Shape" fill="#E6E7E8"></path>
        <path d="M32.999,10.999 L25,11 C23.3431458,11 22,9.65685425 22,8 L22,8.36664071e-13 L32.999,10.999 Z" id="Combined-Shape" fill="#000000" opacity="0.14"></path>
        <g id="Group" transform="translate(8.000000, 18.000000)" fill="#545454">
            <polygon id="Fill-2931" points="9.27265 3.09315 11.5908318 0.00224090909 7.72719545 0.00224090909 5.40901364 3.09315"></polygon>
            <polygon id="Fill-2932" points="13.9090136 0.00224090909 11.5908318 3.09315 16.9999227 3.09315 16.9999227 0.00224090909"></polygon>
            <path d="M6.95446818,6.18405909 L11.5908318,9.27496818 L6.95446818,12.3658773 L6.95446818,6.18405909 Z M-7.72727274e-05,12.3658773 C-7.72727274e-05,13.2189682 0.691513636,13.9113318 1.54537727,13.9113318 L15.4544682,13.9113318 C16.3075591,13.9113318 16.9999227,13.2189682 16.9999227,12.3658773 L16.9999227,4.63860455 L-7.72727274e-05,4.63860455 L-7.72727274e-05,12.3658773 Z" id="Fill-2933"></path>
            <polygon id="Fill-2934" points="5.40901364 0.00224090909 -7.72727273e-05 0.00224090909 -7.72727273e-05 3.09315 3.09083182 3.09315"></polygon>
        </g>
    </g>
</svg>