<?xml version="1.0" encoding="UTF-8"?>
<svg width="33px" height="44px" viewBox="0 0 33 44" version="1.1" xmlns="http://www.w3.org/2000/svg" xmlns:xlink="http://www.w3.org/1999/xlink">
    <title>Document type / Video formats Copy 2</title>
    <g id="Document-type-/-Video-formats-Copy-2" stroke="none" stroke-width="1" fill="none" fill-rule="evenodd">
        <path d="M22,8.02913291e-13 L33,11 L33,11 L33,41 C33,42.6568542 31.6568542,44 30,44 L3,44 C1.34314575,44 1.97926296e-15,42.6568542 0,41 L0,3 C-2.02906125e-16,1.34314575 1.34314575,3.04359188e-16 3,0 L22,8.02913291e-13 Z" id="Combined-Shape" fill="#E6E7E8"></path>
        <path d="M32.999,10.999 L25,11 C23.3431458,11 22,9.65685425 22,8 L22,8.36664071e-13 L32.999,10.999 Z" id="Combined-Shape" fill="#000000" opacity="0.14"></path>
        <g id="Fill-492" transform="translate(8.000000, 18.000000)" fill="#545454">
            <path d="M15.3809524,0 C16.2751277,-1.6425734e-16 17,0.72487231 17,1.61904762 L17,12.3809524 C17,13.2751277 16.2751277,14 15.3809524,14 L1.61904762,14 C0.72487231,14 -3.34584317e-16,13.2751277 0,12.3809524 L0,1.61904762 C-1.09504893e-16,0.72487231 0.72487231,3.86301944e-16 1.61904762,0 L15.3809524,0 Z M11.3341429,5.66666667 L8.09604762,9.83333333 L6.477,8.16666667 L4.04842857,11.5 L13.7627143,11.5 L11.3341429,5.66666667 Z M6.0722381,2.33333333 C4.95347619,2.33333333 4.04842857,3.26583333 4.04842857,4.41666667 C4.04842857,5.56833333 4.95347619,6.5 6.0722381,6.5 C7.18857143,6.5 8.09604762,5.56833333 8.09604762,4.41666667 C8.09604762,3.26583333 7.18857143,2.33333333 6.0722381,2.33333333 Z" id="Combined-Shape"></path>
        </g>
    </g>
</svg>