<?xml version="1.0" encoding="UTF-8"?>
<svg width="33px" height="44px" viewBox="0 0 33 44" version="1.1" xmlns="http://www.w3.org/2000/svg" xmlns:xlink="http://www.w3.org/1999/xlink">
    <title>Document type / PDF</title>
    <defs>
        <polygon id="path-1" points="4.08562073e-13 4.8e-05 20.277268 4.8e-05 20.277268 19.698528 4.08562073e-13 19.698528"></polygon>
    </defs>
    <g id="Document-type-/-PDF" stroke="none" stroke-width="1" fill="none" fill-rule="evenodd">
        <path d="M22,8.02913291e-13 L33,11 L33,11 L33,41 C33,42.6568542 31.6568542,44 30,44 L3,44 C1.34314575,44 1.97926296e-15,42.6568542 0,41 L0,3 C-2.02906125e-16,1.34314575 1.34314575,3.04359188e-16 3,0 L22,8.02913291e-13 Z" id="Combined-Shape" fill="#E44545"></path>
        <path d="M32.999,10.999 L25,11 C23.3431458,11 22,9.65685425 22,8 L22,8.36664071e-13 L32.999,10.999 Z" id="Combined-Shape" fill="#000000" opacity="0.14"></path>
        <g id="Group" transform="translate(6.000006, 14.000024)">
            <mask id="mask-2" fill="white">
                <use xlink:href="#path-1"></use>
            </mask>
            <g id="Clip-2"></g>
            <path d="M5.10265763,14.97768 C3.76225763,17.19216 2.36353763,18.59112 1.60609763,18.59112 C1.48225763,18.57912 1.36273763,18.53928 1.25641763,18.47448 C1.08241763,18.36216 1.00993763,18.144 1.08145763,17.94984 C1.25641763,17.13408 2.77201763,16.02672 5.10265763,14.97768 L5.10265763,14.97768 Z M8.54089763,12.6468 C9.04657763,11.58384 9.49393763,10.49424 9.88129763,9.3828 C10.4198576,10.2408 11.0445776,11.04144 11.7460976,11.77224 C11.7463376,11.8308 9.93961763,12.18048 8.54113763,12.6468 L8.54089763,12.6468 Z M8.65753763,1.34088 C8.75593763,1.17336 8.93017763,1.0644 9.12385763,1.04952 C9.64825763,1.04952 9.76489763,1.69056 9.76489763,2.21496 C9.70705763,3.44664 9.47137763,4.66368 9.06553763,5.82816 C8.19145763,3.49704 8.36617763,1.86528 8.65753763,1.34088 L8.65753763,1.34088 Z M18.3900176,13.34616 C18.3316976,13.75416 17.8072976,14.16216 16.8748976,13.92888 C15.7886576,13.63848 14.7758576,13.12224 13.9027376,12.41376 C14.6604176,12.29712 16.3507376,12.1224 17.5747376,12.35544 C18.0403376,12.47184 18.5064176,12.7632 18.3900176,13.34616 L18.3900176,13.34616 Z M19.8468176,12.35544 C18.3316976,10.782 14.1938576,11.4228 13.2031376,11.53944 C12.1137776,10.44336 11.1732176,9.2088 10.4059376,7.86744 C10.9507376,6.30912 11.2648976,4.67976 11.3383376,3.03048 C11.3383376,1.57344 10.7556176,8.8817842e-15 9.12385763,8.8817842e-15 C8.54929763,0.01704 8.02273763,0.32424 7.72513763,0.816 C7.02577763,2.04 7.31713763,4.488 8.42449763,6.99336 C7.66489763,9.2856 6.70921763,11.50848 5.56849763,13.63704 C3.87841763,14.3364 0.323537628,15.96816 0.0321776277,17.71704 C-0.0779823723,18.25104 0.0988976277,18.80328 0.498497628,19.17408 C0.906257628,19.51656 1.42273763,19.70256 1.95529763,19.6985457 C4.11145763,19.6985457 6.20953763,16.72632 7.66729763,14.22048 C9.32497763,13.6596 11.0188976,13.21176 12.7372976,12.88008 C15.0100976,14.86152 16.9915376,15.15264 18.0412976,15.15264 C19.4397776,15.15264 19.9644176,14.57016 20.1391376,14.04552 C20.4004976,13.47576 20.2843376,12.804 19.8468176,12.35544 L19.8468176,12.35544 Z" id="Fill-1" fill="#FFFFFF" mask="url(#mask-2)"></path>
        </g>
    </g>
</svg>