<svg width="33" height="44" viewBox="0 0 33 44" xmlns="http://www.w3.org/2000/svg"><g fill="none" fill-rule="evenodd"><path d="M22,8.02913291e-13 L33,11 L33,11 L33,41 C33,42.6568542 31.6568542,44 30,44 L3,44 C1.34314575,44 1.97926296e-15,42.6568542 0,41 L0,3 C-2.02906125e-16,1.34314575 1.34314575,3.04359188e-16 3,0 L22,8.02913291e-13 Z" fill="#3D9AE8"/><path d="M32.999,10.999 L25,11 C23.3431458,11 22,9.65685425 22,8 L22,8.36664071e-13 L32.999,10.999 Z" fill="#000" opacity=".14"/><g transform="translate(8 17)" fill="#FFF" fill-rule="nonzero"><polygon points="0 8.90777091 5.0011875 12.2097338 8.5 9.25625168 3.4584375 6.1048669"/><polygon points="5.0011875 0 0 3.30303845 3.4584375 6.1048669 8.5 2.95670879"/><polygon points="17 3.30303845 11.999875 0 8.5 2.95670879 13.542625 6.1048669"/><polygon points="8.5 9.25625168 11.999875 12.2097338 17 8.90777091 13.542625 6.1048669"/><polygon points="8.510625 9.89190643 5.0011875 12.8378596 3.499875 11.8440441 3.499875 12.9572466 8.510625 16 13.5224375 12.9572466 13.5224375 11.8440441 12.0200625 12.8378596"/></g></g></svg>