<svg width="33" height="44" viewBox="0 0 33 44" xmlns="http://www.w3.org/2000/svg"><g fill="none" fill-rule="evenodd"><path d="M30.4615385,13.0909091 L16.2816923,13.0909091 L11.9485385,8.74581818 C11.4713077,8.26981818 10.8290769,8 10.1538462,8 L2.53846154,8 C1.13469231,8 0,9.13781818 0,10.5454545 L0,33.4545455 C0,34.8621818 1.13469231,36 2.53846154,36 L30.4615385,36 C31.8653077,36 33,34.8621818 33,33.4545455 L33,15.6363636 C33,14.2287273 31.8653077,13.0909091 30.4615385,13.0909091 Z" fill="#E6E7E8" fill-rule="nonzero"/><g transform="translate(9 18)" fill="#3D9AE8" fill-rule="nonzero"><polygon points="0 7.79429954 4.4128125 10.6835171 7.5 8.09922022 3.0515625 5.34175854"/><polygon points="4.4128125 0 0 2.89015864 3.0515625 5.34175854 7.5 2.58712019"/><polygon points="15 2.89015864 10.588125 0 7.5 2.58712019 11.949375 5.34175854"/><polygon points="7.5 8.09922022 10.588125 10.6835171 15 7.79429954 11.949375 5.34175854"/><polygon points="7.509375 8.65541812 4.4128125 11.2331272 3.088125 10.3635386 3.088125 11.3375908 7.509375 14 11.9315625 11.3375908 11.9315625 10.3635386 10.6059375 11.2331272"/></g></g></svg>