<svg version="1.1" width="259px" height="104px" viewBox="0 0 259.0 104.0" xmlns="http://www.w3.org/2000/svg" xmlns:xlink="http://www.w3.org/1999/xlink"><defs><clipPath id="i0"><path d="M1016,0 L1016,398 L0,398 L0,0 L1016,0 Z"></path></clipPath><clipPath id="i1"><path d="M10.1772583,0 C11.3729167,0 12.5076333,0.174155833 13.5427833,0.51912 C14.577075,0.863998333 15.5221,1.37299 16.348675,2.0360525 C17.1761083,2.6957675 17.8687833,3.512815 18.408675,4.46384833 C18.923675,5.37136417 19.2858917,6.41621333 19.4833083,7.57153 L16.2782917,7.57153 C16.137525,6.8482125 15.8834583,6.2018875 15.5281083,5.645945 C15.1530167,5.05996083 14.6912333,4.55431667 14.1487667,4.1490975 C13.6063,3.74053083 12.99345,3.4291275 12.3273833,3.22149667 C11.6604583,3.01386583 10.9471833,2.91009333 10.2038667,2.91009333 C8.86143333,2.91009333 7.63916667,3.25831917 6.58084167,3.94146667 C5.51908333,4.62461417 4.67190833,5.63925 4.06249167,6.95868 C3.45650833,8.2680675 3.14836667,9.88885833 3.14836667,11.7741875 C3.14836667,13.6595167 3.45650833,15.3003925 4.06249167,16.6130417 C4.67190833,17.9324717 5.52251667,18.9404125 6.58770833,19.616865 C7.65204167,20.2933175 8.86400833,20.6348483 10.1935667,20.6348483 C10.930875,20.6348483 11.6407167,20.5310758 12.30335,20.3267925 C12.970275,20.1225092 13.583125,19.8178008 14.1221583,19.4159292 C14.664625,19.0140575 15.1298417,18.5151083 15.5083667,17.9358192 C15.8662917,17.3832242 16.12465,16.7470275 16.271425,16.0371 L19.4764417,16.0471425 C19.2858917,17.1019483 18.9374083,18.0864567 18.44215,18.9738875 C17.919425,19.9081833 17.239625,20.7253167 16.425925,21.4016833 C15.6087917,22.0781358 14.664625,22.6106458 13.6200333,22.9789567 C12.57115,23.3507008 11.4124,23.5382467 10.1703917,23.5382467 L10.173825,23.5282042 C8.22111667,23.5282042 6.45981667,23.0526017 4.93970833,22.1183917 C3.41616667,21.1840958 2.20076667,19.8211483 1.32269167,18.0730667 C0.445475,16.3217233 0,14.1986358 0,11.764145 C0,9.32956833 0.448908333,7.19978583 1.32955833,5.4484425 C2.21020833,3.70370833 3.42904167,2.34410833 4.95344167,1.4098125 C6.47698333,0.475516667 8.23485,0 10.1772583,0 Z"></path></clipPath><clipPath id="i2"><path d="M7.645175,0 C7.85289167,0 8.09751667,0.006695 8.381625,0.0234325 C8.59620833,0.033475 8.77731667,0.046865 8.92409167,0.0636025 L8.92409167,2.9903475 C8.78675833,2.9635675 8.603075,2.93344 8.37218333,2.899965 C8.02026667,2.8497525 7.66835,2.82632 7.31986667,2.82632 C6.50616667,2.82632 5.77315,3.00039 5.14055833,3.34870167 C4.503675,3.6969275 3.99125,4.18248667 3.623025,4.79198917 C3.25136667,5.40483917 3.06425,6.11141917 3.06425,6.88829667 L3.06425,17.3630533 L0.00343333333,17.3630533 L0,0.261190833 L2.95009167,0.261190833 L2.95009167,3.02390833 L3.37925833,3.02390833 L3.41273333,2.9233975 C3.71400833,2.02257667 4.256475,1.30260667 5.01953333,0.7835725 C5.78688333,0.264538333 6.67096667,0 7.645175,0 Z"></path></clipPath><clipPath id="i3"><path d="M7.81255,0 C8.76358333,0 9.69830833,0.160765833 10.5884,0.478864167 C11.4759167,0.793700833 12.2836083,1.299345 12.9900167,1.9757975 C13.696425,2.65225 14.2586333,3.5429425 14.6672,4.62126667 C15.0757667,5.70628583 15.2869167,7.0423675 15.2869167,8.59620833 L15.2869167,9.65101417 L3.05051667,9.65101417 L3.05051667,9.79839 C3.08055833,10.8733667 3.29170833,11.8143575 3.6771,12.5878875 C4.09596667,13.42502 4.68821667,14.071345 5.44183333,14.5100392 C6.19201667,14.9487333 7.07953333,15.1697542 8.08035,15.1697542 C8.73010833,15.1697542 9.33008333,15.0725908 9.86568333,14.8851308 C10.4047167,14.6942375 10.8802333,14.4029192 11.2750667,14.0211325 C11.6432917,13.6627783 11.9316917,13.22417 12.1394083,12.711745 L15.0362833,13.2409075 C14.7813583,14.0947775 14.3496167,14.8550033 13.7496417,15.5012425 C13.1136167,16.1877375 12.3067833,16.7268567 11.3488833,17.1052958 C10.38755,17.4870825 9.27600833,17.6779758 8.046875,17.6779758 C6.386,17.6746283 4.93970833,17.3095792 3.74748333,16.5929567 C2.55525833,15.8763342 1.62396667,14.8482225 0.977641667,13.5389208 C0.328741667,12.2261858 0,10.6590408 0,8.88752667 C0,7.11609833 0.328741667,5.5723 0.977641667,4.2428275 C1.62396667,2.91344083 2.541525,1.86524417 3.70370833,1.12184167 C4.86589167,0.378439167 6.24866667,0 7.81255,0 Z M7.83315,2.50487417 C6.86838333,2.50487417 6.01090833,2.74598 5.29076667,3.22484417 C4.57491667,3.70036083 4.01528333,4.32994833 3.62989167,5.09008833 C3.29170833,5.75649833 3.097725,6.48316333 3.05738333,7.24665083 L3.05051667,7.40072167 L12.29305,7.40072167 L12.29305,7.25669333 C12.29305,6.34583 12.1059333,5.525435 11.7377083,4.818855 C11.368625,4.1089275 10.843325,3.539595 10.1772583,3.12776667 C9.51033333,2.7158525 8.71980833,2.50487417 7.83315,2.50487417 Z"></path></clipPath><clipPath id="i4"><path d="M7.48380833,0 C8.1576,0 8.88375,0.0804258333 9.64423333,0.241105833 C10.39785,0.398524167 11.111125,0.69319 11.770325,1.11179917 C12.4235167,1.52706083 12.9659833,2.126435 13.38485,2.90005083 C13.8028583,3.67023333 14.0174417,4.68821667 14.0174417,5.92730667 L14.0174417,17.3296642 L11.033875,17.3296642 L11.033875,14.9520808 L10.66565,14.9520808 L10.6253083,15.0324208 C10.4175917,15.4543775 10.09915,15.8729867 9.67770833,16.2849008 C9.25884167,16.6933817 8.71294167,17.0349983 8.05374167,17.3062317 C7.39368333,17.577465 6.59028333,17.7147983 5.66585833,17.7147983 L5.66929167,17.7047558 C4.6041,17.7047558 3.62989167,17.5004725 2.77241667,17.1019483 C1.918375,16.7034242 1.23514167,16.11744 0.743316667,15.3606475 C0.250633333,14.6037692 0,13.6594308 0,12.5544125 C0,11.6033792 0.18025,10.8130258 0.539033333,10.2036092 C0.896958333,9.59410667 1.38964167,9.1052 1.99905833,8.75027917 C2.618775,8.3885775 3.32175,8.11399667 4.08824167,7.92979833 C4.86245833,7.7422525 5.66585833,7.59831 6.46925833,7.50114667 C7.500975,7.38063667 8.33785,7.28012583 8.98074167,7.19978583 C9.6511,7.11609833 10.1266167,6.9821125 10.4407667,6.78787167 C10.776375,6.58024083 10.9471833,6.2420575 10.9471833,5.78327833 L10.9471833,5.70293833 C10.9471833,4.67817417 10.65535,3.87116917 10.0794083,3.30183667 C9.50346667,2.73259 8.64599167,2.44461917 7.52758333,2.44461917 C6.409175,2.44461917 5.44784167,2.7091575 4.77834167,3.22819167 C4.15519167,3.71375083 3.70714167,4.25630333 3.44191667,4.845635 L0.572508333,4.18592 C0.933866667,3.22819167 1.45315833,2.43457667 2.119225,1.83511667 C2.82305833,1.19883417 3.64276667,0.7300125 4.55775,0.438694167 C5.48131667,0.147375833 6.465825,0 7.48380833,0 Z M10.9531917,8.59955583 L10.7059917,8.85070417 C10.6390417,8.92100167 10.4742417,9.031555 10.0794083,9.1487175 C9.74465833,9.24922833 9.3627,9.33626333 8.937825,9.40656083 C8.505225,9.47694417 8.08378333,9.54054667 7.67521667,9.59745417 L6.6435,9.738135 C5.986875,9.8218225 5.37745833,9.96585083 4.838425,10.1634392 C4.28308333,10.3676367 3.834175,10.6657358 3.50285833,11.0474367 C3.164675,11.4392658 2.99043333,11.9616475 2.99043333,12.59793 C2.99043333,13.4820133 3.32175,14.1584658 3.97150833,14.6138975 C4.6041,15.0558533 5.42123333,15.2802217 6.39544167,15.2802217 C7.37050833,15.2802217 8.16704167,15.0860667 8.84684167,14.7076275 C9.52664167,14.3258408 10.0562333,13.8201967 10.4141583,13.19739 C10.7729417,12.577845 10.9531917,11.90474 10.9531917,11.1948125 L10.9531917,8.59955583 Z"></path></clipPath><clipPath id="i5"><path d="M5.5826,0 L5.5826,4.165835 L9.11206667,4.165835 L9.11206667,6.59363083 L5.5826,6.59363083 L5.5826,16.3049858 C5.5826,16.9948283 5.683025,17.5004725 5.894175,17.8553933 C6.10446667,18.2104 6.38256667,18.4582008 6.72418333,18.5854058 C7.04949167,18.7093492 7.40741667,18.7696042 7.789375,18.7696042 C8.067475,18.7696042 8.31124167,18.7495192 8.52239167,18.7093492 C8.65285833,18.6859167 8.76358333,18.6624842 8.85370833,18.6457467 L9.40304167,21.1806625 C9.22536667,21.2410033 8.994475,21.3012583 8.71036667,21.3648608 C8.36188333,21.4418533 7.91984167,21.4854567 7.39368333,21.4921517 L7.28381667,21.4921517 C6.47011667,21.4954992 5.6959,21.3380808 4.98949167,21.030025 C4.256475,20.7118408 3.6565,20.2095442 3.20158333,19.5431342 C2.74924167,18.87681 2.52178333,18.0228542 2.52178333,17.0082183 L2.52178333,6.59363083 L0,6.59363083 L0,4.165835 L2.52178333,4.165835 L2.52178333,0 L5.5826,0 Z"></path></clipPath><clipPath id="i6"><path d="M3.489125,6.72083583 L3.489125,23.8194367 L0.428308333,23.8194367 L0.428308333,6.72083583 L3.489125,6.72083583 Z M1.97588333,0 C2.52435833,0 2.98013333,0.180850833 3.37239167,0.552509167 C3.76035833,0.924253333 3.94833333,1.352905 3.94833333,1.86859167 C3.94833333,2.38427833 3.76035833,2.82632 3.37239167,3.19463083 C2.98356667,3.566375 2.52435833,3.74722583 1.97588333,3.74722583 C1.42655,3.74722583 0.970775,3.566375 0.579375,3.19463083 C0.19055,2.8229725 0,2.39432083 0,1.87863417 C0,1.3629475 0.19055,0.920905833 0.579375,0.552509167 C0.967341667,0.180850833 1.42655,0 1.97588333,0 Z"></path></clipPath><clipPath id="i7"><path d="M3.28484167,0 L7.645175,13.3815025 L8.036575,13.3815025 L12.383175,0 L15.6680167,0 L9.530075,17.098515 L6.14824167,17.098515 L0,0 L3.28484167,0 Z"></path></clipPath><clipPath id="i8"><path d="M7.81255,0 C8.76358333,0 9.69745,0.160765833 10.5884,0.478864167 C11.4759167,0.793700833 12.28275,1.299345 12.9891583,1.9757975 C13.696425,2.65225 14.2586333,3.5429425 14.6672,4.62126667 C15.0757667,5.70628583 15.2869167,7.0423675 15.2869167,8.59620833 L15.2869167,9.65101417 L3.05051667,9.65101417 L3.05051667,9.79839 C3.08055833,10.8733667 3.29170833,11.8143575 3.6771,12.5878875 C4.09510833,13.42502 4.68821667,14.071345 5.44183333,14.5100392 C6.19201667,14.9487333 7.078675,15.1697542 8.08035,15.1697542 C8.73010833,15.1697542 9.329225,15.0725908 9.864825,14.8851308 C10.4047167,14.6942375 10.8802333,14.4029192 11.2750667,14.0211325 C11.6432917,13.6627783 11.9316917,13.22417 12.1394083,12.711745 L15.035425,13.2409075 C14.7813583,14.0947775 14.3487583,14.8550033 13.7496417,15.5012425 C13.1136167,16.1877375 12.3067833,16.7268567 11.3488833,17.1052958 C10.38755,17.4870825 9.27600833,17.6779758 8.046875,17.6779758 C6.386,17.6746283 4.93885,17.3095792 3.74748333,16.5929567 C2.55525833,15.8763342 1.62396667,14.8482225 0.977641667,13.5389208 C0.327883333,12.2261858 0,10.6590408 0,8.88752667 C0,7.11609833 0.327883333,5.5723 0.977641667,4.2428275 C1.62396667,2.91344083 2.541525,1.86524417 3.70370833,1.12184167 C4.86589167,0.378439167 6.24866667,0 7.81255,0 Z M7.83229167,2.50487417 C6.86838333,2.50487417 6.01090833,2.74598 5.29076667,3.22484417 C4.57405833,3.70036083 4.01528333,4.32994833 3.62989167,5.09008833 C3.29170833,5.75649833 3.097725,6.48316333 3.05738333,7.24665083 L3.05051667,7.40072167 L12.29305,7.40072167 L12.29305,7.25669333 C12.29305,6.34583 12.105075,5.525435 11.73685,4.818855 C11.368625,4.1089275 10.843325,3.539595 10.1764,3.12776667 C9.51033333,2.7158525 8.71980833,2.50487417 7.83229167,2.50487417 Z"></path></clipPath><clipPath id="i9"><path d="M13.9401917,0 L13.9401917,2.7225475 L3.17068333,2.7225475 L3.17068333,10.0763183 L12.9222083,10.0763183 L12.9222083,12.7888233 L3.17068333,12.7888233 L3.17068333,22.8986167 L0,22.8986167 L0,0 L13.9401917,0 Z"></path></clipPath><clipPath id="i10"><path d="M7.8795,0 C9.45969167,0 10.8527667,0.368396667 12.0286833,1.09840917 C13.2037417,1.82842167 14.1281667,2.86657583 14.7744917,4.18592 C15.4276833,5.512045 15.759,7.08262333 15.759,8.85405167 C15.759,10.6255658 15.4276833,12.1826683 14.777925,13.4987508 C14.1281667,14.8114 13.2037417,15.8462067 12.0286833,16.5762192 C10.8527667,17.3062317 9.45969167,17.6746283 7.8795,17.6746283 C6.30188333,17.6746283 4.905375,17.3062317 3.73031667,16.5762192 C2.55525833,15.8462067 1.63083333,14.8114 0.981075,13.4987508 C0.327883333,12.1826683 0,10.6188708 0,8.85405167 C0,7.08931833 0.331316667,5.5086975 0.984508333,4.18592 C1.63426667,2.86657583 2.55869167,1.82507417 3.73031667,1.09840917 C4.905375,0.368396667 6.29845,0 7.8795,0 Z M7.887,2.538 C6.80744167,2.53834917 5.89675,2.8363625 5.18004167,3.419085 C4.4702,3.99837417 3.94146667,4.7753375 3.59985,5.72971833 C3.2651,6.67405667 3.09429167,7.71882 3.09429167,8.84066167 C3.09429167,9.96250333 3.2651,11.0173092 3.59985,11.9583 C3.93803333,12.9093333 4.4702,13.6796017 5.18004167,14.2521958 C5.89331667,14.8281375 6.80486667,15.1228892 7.88636667,15.1228892 C8.96786667,15.1228892 9.86825833,14.831485 10.5781,14.2521958 C11.2819333,13.6796017 11.8141,12.9093333 12.1522833,11.9583 C12.4904667,11.0173092 12.6578417,9.96919833 12.6578417,8.84066167 C12.6578417,7.712125 12.4870333,6.67405667 12.1522833,5.72971833 C11.8106667,4.7753375 11.2819333,3.99837417 10.5781,3.419085 C9.92741181,2.88185417 9.11083877,2.58948378 8.15152064,2.54448615 L7.887,2.538 Z"></path></clipPath><clipPath id="i11"><path d="M7.645175,0 C7.85289167,0 8.09751667,0.006695 8.38248333,0.0234325 C8.59620833,0.033475 8.77731667,0.046865 8.92495,0.0636025 L8.92495,2.99043333 C8.78761667,2.9635675 8.603075,2.93344 8.37218333,2.899965 C8.02026667,2.8497525 7.66920833,2.82632 7.320725,2.82632 C6.507025,2.82632 5.77315,3.00047583 5.14055833,3.34870167 C4.50453333,3.69701333 3.99210833,4.1825725 3.62388333,4.79198917 C3.252225,5.40483917 3.06425,6.11141917 3.06425,6.88829667 L3.06425,17.3631392 L0.00343333333,17.3631392 L0,0.257843333 L2.95009167,0.257843333 L2.95009167,3.02056083 L3.37925833,3.02056083 L3.41273333,2.9233975 C3.71400833,2.02257667 4.256475,1.30260667 5.01953333,0.7835725 C5.78688333,0.264538333 6.67096667,0 7.645175,0 Z"></path></clipPath><clipPath id="i12"><path d="M7.84259167,0 C9.12236667,0 10.2776833,0.241105833 11.2750667,0.7166225 C12.269875,1.19213917 13.0870083,1.86189667 13.7032917,2.7158525 C14.2861,3.526205 14.6508917,4.48058583 14.7847917,5.5555625 L11.801225,5.5555625 C11.6038083,4.7619475 11.1849417,4.0687575 10.5583583,3.4893825 C9.895725,2.87661833 9.00134167,2.56847667 7.9001,2.56847667 C6.93876667,2.56847667 6.08815833,2.82632 5.36801667,3.3353975 C4.65130833,3.84438917 4.08566667,4.57105417 3.6874,5.5020025 C3.29170833,6.42625583 3.09429167,7.52792667 3.09429167,8.78040667 C3.09429167,10.0328008 3.288275,11.18477 3.6771,12.1190658 C4.0685,13.0600567 4.62813333,13.8034592 5.34484167,14.3191458 C6.06498333,14.8415275 6.92503333,15.1061517 7.9001,15.1061517 C8.55243333,15.1061517 9.15584167,14.9822083 9.69144167,14.737755 C10.230475,14.4899542 10.6896833,14.1316 11.054475,13.6728208 C11.399525,13.2409075 11.6501583,12.71844 11.801225,12.1190658 L14.7847917,12.1190658 C14.6508917,13.1504392 14.298975,14.0880825 13.7402,14.9052158 C13.150525,15.7624333 12.3539917,16.4489283 11.3694833,16.9411825 C10.3815417,17.4334367 9.205625,17.6846708 7.87606667,17.6846708 C6.24866667,17.6779758 4.82898333,17.2995367 3.65993333,16.5527867 C2.48830833,15.8060367 1.57761667,14.75784 0.951033333,13.43841 C0.321875,12.1123708 0,10.57192 0,8.85739917 C0,7.14287833 0.328741667,5.5689525 0.971633333,4.23948 C1.614525,2.91678833 2.53208333,1.86859167 3.69684167,1.12184167 C4.86245833,0.378439167 6.25896667,0 7.84259167,0 Z"></path></clipPath><clipPath id="i13"><path d="M7.81255,0 C8.76358333,0 9.69830833,0.160765833 10.5892583,0.478864167 C11.4759167,0.793700833 12.2836083,1.299345 12.9900167,1.9757975 C13.696425,2.65225 14.2594917,3.54302833 14.6680583,4.62126667 C15.076625,5.70628583 15.2869167,7.0423675 15.2869167,8.59620833 L15.2869167,9.65101417 L3.05051667,9.65101417 L3.05051667,9.79839 C3.08141667,10.8767142 3.29170833,11.8143575 3.6771,12.5878875 C4.09596667,13.4251058 4.68821667,14.071345 5.44183333,14.5100392 C6.19201667,14.9487333 7.07953333,15.1697542 8.08035,15.1697542 C8.73010833,15.1697542 9.33008333,15.0726767 9.86568333,14.8851308 C10.4047167,14.6942375 10.8802333,14.4029192 11.2750667,14.0211325 C11.64415,13.6662117 11.9316917,13.22417 12.1394083,12.711745 L15.0362833,13.23756 C14.7813583,14.09143 14.3496167,14.8516558 13.7505,15.497895 C13.1136167,16.18439 12.3067833,16.723595 11.3488833,17.1019483 C10.3884083,17.4803875 9.27600833,17.6746283 8.046875,17.6746283 C6.386,17.6746283 4.93970833,17.3095792 3.74748333,16.5929567 C2.55525833,15.8763342 1.62396667,14.8483083 0.9785,13.5389208 C0.328741667,12.2261858 0,10.6623883 0,8.88752667 C0,7.11275083 0.328741667,5.5756475 0.9785,4.2428275 C1.62396667,2.91678833 2.541525,1.86524417 3.70370833,1.12184167 C4.86589167,0.378439167 6.24866667,0 7.81255,0 Z M7.83315,2.50487417 C6.86838333,2.50487417 6.01090833,2.74598 5.291625,3.22484417 C4.57491667,3.70036083 4.01528333,4.32994833 3.62989167,5.09008833 C3.29170833,5.75649833 3.097725,6.48316333 3.05738333,7.24665083 L3.05051667,7.40072167 L12.29305,7.40072167 L12.29305,7.25669333 C12.29305,6.34583 12.1059333,5.525435 11.7377083,4.818855 C11.3694833,4.1089275 10.843325,3.539595 10.1772583,3.12776667 C9.51033333,2.7158525 8.72066667,2.50487417 7.83315,2.50487417 Z"></path></clipPath><clipPath id="i14"><path d="M62.5475833,35.6355449 L62.1168866,35.1609624 C57.5549359,30.2356124 51.1851475,27.4285262 44.4445206,27.4285262 C43.0984498,27.4285262 41.7780813,27.539328 40.4920046,27.7522676 L0,25.4842763 L0.172840355,25.1892517 C3.07027307,20.3362404 6.73542742,16.0066071 11.0114408,12.3475614 L11.0451752,12.3328257 C20.028623,4.64147676 31.7046465,0 44.4445206,0 C59.5117411,0 73.7543018,6.56119896 83.5643165,17.9964805 C88.477914,23.7536362 87.8250584,32.395383 82.0696207,37.3313151 C76.314183,42.2517848 67.6552559,41.5989291 62.7416583,35.8417734 C62.6958439,35.7913775 62.6423937,35.7409817 62.5965793,35.6905858 L62.536,35.615 L62.5475833,35.6355449 Z"></path></clipPath><linearGradient id="i15" x1="71.8016742px" y1="40.630894px" x2="33.1589113px" y2="-0.678449195px" gradientUnits="userSpaceOnUse"><stop stop-color="#476FE7" offset="0%"></stop><stop stop-color="#3C5DE6" offset="29.6987558%"></stop><stop stop-color="#354FE7" offset="52.239815%"></stop><stop stop-color="#2C47E8" offset="72.6412857%"></stop><stop stop-color="#253FEB" offset="100%"></stop></linearGradient><clipPath id="i16"><path d="M11.8922433,0 L28.5810962,25.5378673 C27.8382295,27.8543855 27.4371164,30.3222445 27.4371164,32.8815675 C27.4371164,42.4212999 33.0141389,50.6789772 41.0797015,54.5790529 L41.5053914,54.7795094 L41.5765946,54.7968998 L42.1988085,55.071487 C45.0651822,56.2864239 48.2045517,56.9530413 51.5068722,56.9530413 C58.7438676,56.9530413 65.4791386,53.7776109 70.0789865,48.2168948 L70.4912263,47.7048261 C75.1471177,41.7518137 83.771684,40.7038086 89.7332866,45.3665722 C95.6777088,50.0138733 96.7257139,58.6401577 92.0698225,64.5931701 C82.225447,77.1675129 67.4502936,84.3661051 51.5068722,84.3661051 C23.1076528,84.3661051 0,61.2670425 0,32.8661051 C0,24.0130393 2.25063384,15.6891302 6.20212837,8.39948182 L6.71813871,7.47139378 C8.22572668,4.82430748 9.95858229,2.32619061 11.8922433,0 Z"></path></clipPath><linearGradient id="i17" x1="93.3363987px" y1="68.6835236px" x2="-4.30604184px" y2="38.4524175px" gradientUnits="userSpaceOnUse"><stop stop-color="#73B1E2" offset="0%"></stop><stop stop-color="#7FADD8" offset="16.2719006%"></stop><stop stop-color="#8AA4CD" offset="29.6987558%"></stop><stop stop-color="#909EC7" offset="41.2308876%"></stop><stop stop-color="#9594C0" offset="52.239815%"></stop><stop stop-color="#948DBE" offset="61.5031022%"></stop><stop stop-color="#9383BB" offset="72.6412857%"></stop><stop stop-color="#7D70C3" offset="85.4082019%"></stop><stop stop-color="#5358D8" offset="100%"></stop></linearGradient><radialGradient id="i18" cx="68.4170571px" cy="77.4690423px" r="39.0743597px" gradientTransform="translate(101.72703749760592 188.14385878211135) rotate(-160.45469826174636) scale(0.9999999999999999 1.202461081175338)" gradientUnits="userSpaceOnUse"><stop stop-color="#BFDFEC" offset="0%"></stop><stop stop-color="rgba(191, 223, 236, 0)" offset="100%"></stop></radialGradient><radialGradient id="i19" cx="10.3291666px" cy="64.275121px" r="36.7071396px" gradientTransform="translate(-10.091531965484211 111.2511095559124) rotate(-144.87154766866138) scale(1.0 0.7805551633945039)" gradientUnits="userSpaceOnUse"><stop stop-color="#A783AE" offset="0%"></stop><stop stop-color="rgba(166, 131, 174, 0)" offset="100%"></stop></radialGradient><radialGradient id="i20" cx="32.8142842px" cy="79.455631px" r="39.621999px" gradientTransform="translate(18.847421538705866 150.18366555015368) rotate(-141.75410605309656) scale(1.0 0.8079109589658817)" gradientUnits="userSpaceOnUse"><stop stop-color="rgba(232, 209, 174, 0.800699)" offset="0%"></stop><stop stop-color="rgba(232, 209, 174, 0)" offset="100%"></stop></radialGradient><radialGradient id="i21" cx="91.4480293px" cy="38.8494673px" r="32.8622141px" gradientTransform="translate(156.33034310812857 -31.40197754788629) rotate(115.71896338082585) scale(1.0 0.7199202796307768)" gradientUnits="userSpaceOnUse"><stop stop-color="rgba(104, 150, 223, 0.869154)" offset="0%"></stop><stop stop-color="rgba(104, 150, 223, 0)" offset="100%"></stop></radialGradient><clipPath id="i22"><path d="M12.3923901,2.14627546 C23.216049,-2.5920819 38.9189447,0.567395685 51.7698921,11.1075778 C56.9755566,15.3597296 61.047314,20.2956616 63.9336231,25.4429128 C59.3464533,20.2183498 52.7835363,17.2272402 45.8254699,17.2272402 C32.5278318,17.2272402 21.7385337,28.0405909 21.7385337,41.3141764 C21.7385337,51.0485973 27.5455126,59.4481002 35.8780119,63.2449711 C35.7921099,63.2295087 35.7405686,63.2140463 35.671847,63.198584 C29.3666361,61.4977233 22.923982,58.2489076 17.0654619,53.4487007 L17.0654619,53.4332384 C4.31759691,42.9841124 -1.88453146,28.3292218 0.503545666,16.8320908 C3.54447841,11.2278407 7.581875,6.26270193 12.3923901,2.14627546 Z"></path></clipPath><linearGradient id="i23" x1="31.9780586px" y1="0.839628968px" x2="32.0881325px" y2="62.9324665px" gradientUnits="userSpaceOnUse"><stop stop-color="#1F2158" offset="0%"></stop><stop stop-color="#222669" offset="8.54380967%"></stop><stop stop-color="#2D3383" offset="22.0029286%"></stop><stop stop-color="#353E92" offset="31.0024193%"></stop><stop stop-color="#494EA8" offset="45.5085245%"></stop><stop stop-color="#5C5DB1" offset="58.0131627%"></stop><stop stop-color="#6763AC" offset="71.7916582%"></stop><stop stop-color="#746CA7" offset="86.5178677%"></stop><stop stop-color="#7A77A6" offset="100%"></stop></linearGradient></defs><g transform="translate(-629.0 -58.0)"><g clip-path="url(#i0)"><g transform="translate(629.0000000000001 58.5)"><g transform="translate(132.1326916666667 22.456660833333327)"><g transform="translate(0.0 0.6093308333333312)"><g clip-path="url(#i1)"><polygon points="0,0 19.4833083,0 19.4833083,23.5382467 0,23.5382467 0,0" stroke="none" fill="#FFFFFF"></polygon></g></g><g transform="translate(23.65566666666655 6.459730833333339)"><g clip-path="url(#i2)"><polygon points="0,0 8.92409167,0 8.92409167,17.3630533 0,17.3630533 0,0" stroke="none" fill="#FFFFFF"></polygon></g></g><g transform="translate(35.16505833333349 6.496553333333338)"><g clip-path="url(#i3)"><polygon points="0,0 15.2869167,0 15.2869167,17.6779758 0,17.6779758 0,0" stroke="none" fill="#FFFFFF"></polygon></g></g><g transform="translate(54.20632499999988 6.499900833333356)"><g clip-path="url(#i4)"><polygon points="0,0 14.0174417,0 14.0174417,17.7147983 0,17.7147983 0,0" stroke="none" fill="#FFFFFF"></polygon></g></g><g transform="translate(72.07854166666675 2.5519108333333236)"><g clip-path="url(#i5)"><polygon points="0,0 9.40304167,0 9.40304167,21.4954992 0,21.4954992 0,0" stroke="none" fill="#FFFFFF"></polygon></g></g><g transform="translate(85.85564999999997 0.0)"><g clip-path="url(#i6)"><polygon points="0,0 3.94833333,0 3.94833333,23.8194367 0,23.8194367 0,0" stroke="none" fill="#FFFFFF"></polygon></g></g><g transform="translate(93.69480833333341 6.720835833333325)"><g clip-path="url(#i7)"><polygon points="0,0 15.6680167,0 15.6680167,17.098515 0,17.098515 0,0" stroke="none" fill="#FFFFFF"></polygon></g></g><g transform="translate(111.3893500000001 6.496553333333338)"><g clip-path="url(#i8)"><polygon points="0,0 15.2869167,0 15.2869167,17.6779758 0,17.6779758 0,0" stroke="none" fill="#FFFFFF"></polygon></g></g><g transform="translate(1.209391666666761 35.11784999999998)"><g clip-path="url(#i9)"><polygon points="0,0 13.9401917,0 13.9401917,22.8986167 0,22.8986167 0,0" stroke="none" fill="#FFFFFF"></polygon></g></g><g transform="translate(17.54433333333327 40.69366916666667)"><g clip-path="url(#i10)"><polygon points="0,0 15.759,0 15.759,17.6746283 0,17.6746283 0,0" stroke="none" fill="#FFFFFF"></polygon></g></g><g transform="translate(37.16411666666659 40.66019416666666)"><g clip-path="url(#i11)"><polygon points="0,0 8.92495,0 8.92495,17.3631392 0,17.3631392 0,0" stroke="none" fill="#FFFFFF"></polygon></g></g><g transform="translate(48.35935833333338 40.69032166666665)"><g clip-path="url(#i12)"><polygon points="0,0 14.7847917,0 14.7847917,17.6846708 0,17.6846708 0,0" stroke="none" fill="#FFFFFF"></polygon></g></g><g transform="translate(66.27449166666679 40.69366916666667)"><g clip-path="url(#i13)"><polygon points="0,0 15.2869167,0 15.2869167,17.6746283 0,17.6746283 0,0" stroke="none" fill="#FFFFFF"></polygon></g></g></g><g transform="translate(7.079531958900461 0.0)"><g clip-path="url(#i14)"><polygon points="0,0 86.8583238,0 86.8583238,40.630894 0,40.630894 0,0" stroke="none" fill="url(#i15)"></polygon></g></g><g transform="translate(0.0 18.63389488247303)"><g clip-path="url(#i16)"><polygon points="0,0 94.9775752,0 94.9775752,84.3661051 0,84.3661051 0,0" stroke="none" fill="url(#i17)"></polygon></g></g><g transform="translate(0.0 18.63389488247303)"><g clip-path="url(#i16)"><polygon points="0,0 94.9775752,0 94.9775752,84.3661051 0,84.3661051 0,0" stroke="none" fill="url(#i18)" opacity="80.0000012%"></polygon></g></g><g transform="translate(0.0 18.63389488247303)"><g clip-path="url(#i16)"><polygon points="0,0 94.9775752,0 94.9775752,84.3661051 0,84.3661051 0,0" stroke="none" fill="url(#i19)"></polygon></g></g><g transform="translate(0.0 18.63389488247303)"><g clip-path="url(#i16)"><polygon points="0,0 94.9775752,0 94.9775752,84.3661051 0,84.3661051 0,0" stroke="none" fill="url(#i20)" opacity="80.0000012%"></polygon></g></g><g transform="translate(0.0 18.63389488247303)"><g clip-path="url(#i16)"><polygon points="0,0 94.9775752,0 94.9775752,84.3661051 0,84.3661051 0,0" stroke="none" fill="url(#i21)"></polygon></g></g><g transform="translate(5.698582703418147 10.201285926952494)"><g clip-path="url(#i22)"><polygon points="4.77395901e-15,-5.32907052e-15 63.9336231,-5.32907052e-15 63.9336231,63.2449711 4.77395901e-15,63.2449711 4.77395901e-15,-5.32907052e-15" stroke="none" fill="url(#i23)"></polygon></g></g></g></g></g></svg>