<svg xmlns="http://www.w3.org/2000/svg" width="16" height="16" viewBox="0 0 16 16">
  <g fill="#FFF" fill-rule="evenodd">
    <path d="M14.18048,9.6 L12.51968,9.6 C11.85888,11.4616 10.08528,12.8 7.99968,12.8 C5.35328,12.8 3.19968,10.6472 3.19968,8 C3.19968,5.9152 4.53888,4.1416 6.39968,3.48 L6.39968,1.8192 C5.68048,2.0064 5.00368,2.3008 4.40528,2.7088 L3.19168,1.4944 L1.49488,3.1912 L2.70848,4.4056 C2.29968,5.0048 1.99728,5.6792 1.81088,6.4 L-0.00032,6.4 L-0.00032,9.6 L1.81088,9.6 C1.99728,10.3216 2.29968,10.9952 2.70848,11.5944 L1.49488,12.8088 L3.19168,14.5056 L4.40528,13.292 C5.00448,13.7 5.67888,14.0024 6.39968,14.1896 L6.39968,16 L9.59968,16 L9.59968,14.1896 C10.32128,14.0024 10.99488,13.7 11.59488,13.292 L12.80848,14.5056 L14.50528,12.8088 L13.29168,11.5944 C13.69888,10.996 13.99408,10.3192 14.18048,9.6"/>
    <path d="M12,5.6 C11.1152,5.6 10.4,4.8832 10.4,4 C10.4,3.1168 11.1152,2.4 12,2.4 C12.8848,2.4 13.6,3.1168 13.6,4 C13.6,4.8832 12.8848,5.6 12,5.6 L12,5.6 Z M16,4.7272 L16,3.2728 L14.8064,3.2728 C14.7416,3.0232 14.644,2.7896 14.5192,2.5712 L15.2728,1.8176 L14.1816,0.7272 L13.428,1.4808 C13.2104,1.3552 12.9768,1.2584 12.7264,1.1936 L12.7264,0 L11.2728,0 L11.2728,1.1936 C11.0232,1.2584 10.7896,1.3552 10.572,1.4808 L9.8184,0.7272 L8.7264,1.8176 L9.4808,2.5712 C9.356,2.7896 9.2584,3.0232 9.1928,3.2728 L8,3.2728 L8,4.7272 L9.1928,4.7272 C9.2584,4.9768 9.356,5.2104 9.4808,5.4288 L8.7264,6.1824 L9.8184,7.2728 L10.572,6.52 C10.7896,6.6448 11.0232,6.7416 11.2728,6.8064 L11.2728,8 L12.7264,8 L12.7264,6.8064 C12.9768,6.7416 13.2104,6.6448 13.428,6.52 L14.1816,7.2728 L15.2728,6.1824 L14.5192,5.4288 C14.644,5.2104 14.7416,4.9768 14.8064,4.7272 L16,4.7272 Z"/>
  </g>
</svg>
