<svg xmlns="http://www.w3.org/2000/svg" width="22" height="22" viewBox="0 0 22 22">
  <g fill="none" fill-rule="evenodd">
    <rect width="22" height="22"/>
    <g fill="#757575" fill-rule="nonzero">
      <path d="M2.75,17.4166667 L5.5,13.75 L7.33333333,15.5833333 L11,11 L11.1925,11.4500833 C12.5280833,10.0466667 14.4090833,9.16758333 16.5,9.16758333 L16.5,4.20383333 L12.2961667,0 L1.83333333,0 C0.82225,0 0,0.823166667 0,1.83333333 L0,18.3333333 C0,19.3444167 0.82225,20.1666667 1.83333333,20.1666667 L10.15575,20.1666667 C9.67633333,19.338 9.35366667,18.4094167 9.22991667,17.4166667 L2.75,17.4166667 Z M11,0.916666667 L15.5833333,5.5 L11,5.5 L11,0.916666667 Z M5.04166667,7.33333333 C6.30575,7.33333333 7.33333333,8.35908333 7.33333333,9.625 C7.33333333,10.8918333 6.30575,11.9166667 5.04166667,11.9166667 C3.77483333,11.9166667 2.75,10.8918333 2.75,9.625 C2.75,8.35908333 3.77483333,7.33333333 5.04166667,7.33333333 Z"/>
      <path d="M16.5,11 C13.46675,11 11,13.4695 11,16.5 C11,19.5341667 13.46675,22 16.5,22 C19.5323333,22 22,19.5341667 22,16.5 C22,13.4695 19.5323333,11 16.5,11 Z M17.4166667,20.1666667 L15.5833333,20.1666667 L15.5833333,16.5 L17.4166667,16.5 L17.4166667,20.1666667 Z M16.5,15.5824167 C15.994,15.5824167 15.5833333,15.1726667 15.5833333,14.66575 C15.5833333,14.1606667 15.994,13.7490833 16.5,13.7490833 C17.006,13.7490833 17.4166667,14.1606667 17.4166667,14.66575 C17.4166667,15.17175 17.006,15.5824167 16.5,15.5824167 Z"/>
    </g>
  </g>
</svg>
