<svg xmlns="http://www.w3.org/2000/svg" width="65" height="64" viewBox="0 0 65 64">
  <g fill="none">
    <path fill="#001E36" d="M11.5104167,0 L53.4895833,0 C59.8541667,0 65,5.14583333 65,11.5104167 L65,51.8645833 C65,58.2291667 59.8541667,63.375 53.4895833,63.375 L11.5104167,63.375 C5.14583333,63.375 0,58.2291667 0,51.8645833 L0,11.5104167 C0,5.14583333 5.14583333,0 11.5104167,0 Z"/>
    <path fill="#31A8FF" d="M0 28.4645833L0 .595833333C0 .40625.08125.297916667.270833333.297916667.73125.297916667 1.16458333.297916667 1.7875.270833333 2.4375.24375 3.11458333.24375 3.84583333.216666667 4.57708333.189583333 5.3625.189583333 6.20208333.1625 7.04166667.135416667 7.85416667.135416667 8.66666667.135416667 10.8875.135416667 12.7291667.40625 14.2458333.975 15.6 1.43541667 16.8458333 2.19375 17.875 3.19583333 18.7416667 4.0625 19.41875 5.11875 19.8520833 6.28333333 20.2583333 7.42083333 20.475 8.58541667 20.475 9.80416667 20.475 12.1333333 19.9333333 14.05625 18.85 15.5729167 17.7666667 17.0895833 16.25 18.2270833 14.4895833 18.8770833 12.6479167 19.5541667 10.6166667 19.7979167 8.39583333 19.7979167 7.74583333 19.7979167 7.3125 19.7979167 7.04166667 19.7708333 6.77083333 19.74375 6.39166667 19.74375 5.87708333 19.74375L5.87708333 28.4375C5.90416667 28.6270833 5.76875 28.7895833 5.57916667 28.8166667 5.55208333 28.8166667 5.525 28.8166667 5.47083333 28.8166667L.325 28.8166667C.108333333 28.8166667 0 28.7083333 0 28.4645833zM5.90416667 5.525L5.90416667 14.625C6.28333333 14.6520833 6.63541667 14.6791667 6.96041667 14.6791667L8.39583333 14.6791667C9.45208333 14.6791667 10.5083333 14.5166667 11.5104167 14.1916667 12.3770833 13.9479167 13.1354167 13.4333333 13.73125 12.75625 14.3 12.0791667 14.5708333 11.1583333 14.5708333 9.96666667 14.5979167 9.12708333 14.38125 8.2875 13.9479167 7.55625 13.4875 6.85208333 12.8375 6.31041667 12.0520833 6.0125 11.05 5.60625 9.96666667 5.44375 8.85625 5.47083333 8.15208333 5.47083333 7.52916667 5.47083333 7.01458333 5.49791667 6.47291667 5.47083333 6.09375 5.49791667 5.90416667 5.525L5.90416667 5.525zM37.375 12.9729167C36.5625 12.5395833 35.6958333 12.2416667 34.775 12.0520833 33.7729167 11.8354167 32.7708333 11.7 31.7416667 11.7 31.2 11.6729167 30.63125 11.7541667 30.1166667 11.8895833 29.7645833 11.9708333 29.4666667 12.1604167 29.2770833 12.43125 29.1416667 12.6479167 29.0604167 12.91875 29.0604167 13.1625 29.0604167 13.40625 29.16875 13.65 29.33125 13.8666667 29.575 14.1645833 29.9 14.4083333 30.2520833 14.5979167 30.875 14.9229167 31.525 15.2208333 32.175 15.4916667 33.6375 15.9791667 35.0458333 16.65625 36.3458333 17.46875 37.2395833 18.0375 37.9708333 18.7958333 38.4854167 19.7166667 38.91875 20.5833333 39.1354167 21.53125 39.1083333 22.50625 39.1354167 23.7791667 38.75625 25.0520833 38.0520833 26.1083333 37.29375 27.1916667 36.2375 28.03125 35.01875 28.51875 33.6916667 29.0875 32.0666667 29.3854167 30.1166667 29.3854167 28.8708333 29.3854167 27.6520833 29.2770833 26.4333333 29.0333333 25.4854167 28.8708333 24.5375 28.5729167 23.6708333 28.1666667 23.48125 28.0583333 23.3458333 27.86875 23.3729167 27.6520833L23.3729167 22.9395833C23.3729167 22.8583333 23.4 22.75 23.48125 22.6958333 23.5625 22.6416667 23.64375 22.66875 23.725 22.7229167 24.78125 23.3458333 25.8916667 23.7791667 27.0833333 24.05 28.1125 24.3208333 29.1958333 24.45625 30.2791667 24.45625 31.3083333 24.45625 32.0395833 24.3208333 32.5270833 24.0770833 32.9604167 23.8875 33.2583333 23.4270833 33.2583333 22.9395833 33.2583333 22.5604167 33.0416667 22.2083333 32.6083333 21.85625 32.175 21.5041667 31.28125 21.0979167 29.9541667 20.5833333 28.5729167 20.0958333 27.3 19.4458333 26.1083333 18.6333333 25.26875 18.0375 24.5645833 17.2520833 24.05 16.33125 23.6166667 15.4645833 23.4 14.5166667 23.4270833 13.56875 23.4270833 12.4041667 23.7520833 11.29375 24.3479167 10.2916667 25.025 9.20833333 26.0270833 8.34166667 27.1916667 7.8 28.4645833 7.15 30.0625 6.85208333 31.9854167 6.85208333 33.0958333 6.85208333 34.2333333 6.93333333 35.34375 7.09583333 36.15625 7.20416667 36.9416667 7.42083333 37.6729167 7.71875 37.78125 7.74583333 37.8895833 7.85416667 37.94375 7.9625 37.9708333 8.07083333 37.9979167 8.17916667 37.9979167 8.2875L37.9979167 12.7020833C37.9979167 12.8104167 37.94375 12.91875 37.8625 12.9729167 37.61875 13.0270833 37.4833333 13.0270833 37.375 12.9729167z" transform="translate(14.625 15.98)"/>
  </g>
</svg>
