<svg xmlns="http://www.w3.org/2000/svg" width="65" height="64" viewBox="0 0 65 64">
  <g fill="none">
    <path fill="#000B1D" d="M11.5104167,0 L53.4895833,0 C59.8541667,0 65,5.14583333 65,11.5104167 L65,51.8645833 C65,58.2291667 59.8541667,63.375 53.4895833,63.375 L11.5104167,63.375 C5.14583333,63.375 0,58.2291667 0,51.8645833 L0,11.5104167 C0,5.14583333 5.14583333,0 11.5104167,0 Z"/>
    <path fill="#FFF" d="M14.9229167 44.4708333L14.8958333 16.7916667C14.8958333 16.5208333 14.9770833 16.3854167 15.1666667 16.3583333 15.6541667 16.33125 16.4125 16.3041667 17.4416667 16.3041667 18.4708333 16.2770833 19.4458333 16.2770833 20.6375 16.25 21.8291667 16.2229167 22.9125 16.2229167 23.9145833 16.2229167 26.2979167 16.2229167 28.2479167 16.3854167 29.65625 16.9270833 31.0645833 17.4416667 32.1479167 18.11875 32.90625 18.9041667 33.6375 19.6083333 34.1791667 20.475 34.5041667 21.4229167 34.7479167 22.2083333 34.8833333 22.99375 34.8833333 23.8333333 34.8833333 24.7 34.69375 25.5666667 34.36875 26.3791667 34.125 27.05625 33.7729167 27.6791667 33.3125 28.2208333 32.9875 28.6541667 32.58125 29.00625 32.1479167 29.3041667 32.7708333 29.6291667 33.3395833 30.0354167 33.88125 30.4958333 34.5583333 31.0916667 35.1270833 31.85 35.50625 32.6625 36.0208333 33.6916667 36.2916667 34.8291667 36.2645833 35.9666667 36.2645833 37.6458333 35.75 39.2979167 34.7479167 40.6520833 33.7729167 41.9791667 32.3916667 43.0354167 30.55 43.7666667 28.4645833 44.5791667 26.2708333 44.9854167 24.0229167 44.93125L21.1520833 44.93125C20.23125 44.93125 19.4729167 44.93125 18.6875 44.9041667 17.9291667 44.8770833 17.2520833 44.8770833 16.6833333 44.85 16.1145833 44.8229167 15.6270833 44.8229167 15.2208333 44.8229167 15.0041667 44.8229167 14.9229167 44.6875 14.9229167 44.4708333zM20.8 21.36875L20.8270833 27.4083333 23.6708333 27.4083333C24.45625 27.4083333 25.2145833 27.4354167 25.9729167 27.4625 26.5145833 27.4625 27.05625 27.5166667 27.5979167 27.625 27.9770833 27.3 28.3020833 26.89375 28.5458333 26.4604167 28.84375 25.9458333 28.9791667 25.3770833 28.9791667 24.78125 28.9791667 24.0770833 28.7625 23.3729167 28.3291667 22.7770833 27.8958333 22.2625 27.3270833 21.85625 26.7041667 21.6666667 25.8104167 21.3958333 24.8895833 21.2875 23.9416667 21.3145833L22.66875 21.3145833C22.2895833 21.3145833 22.0458333 21.3145833 21.7479167 21.3416667 21.4770833 21.3416667 21.1520833 21.36875 20.8 21.36875zM20.8270833 32.4729167L20.8270833 39.73125C21.3145833 39.7583333 21.69375 39.7854167 22.2083333 39.7854167 22.6958333 39.8125 23.2916667 39.8125 23.9958333 39.8125 25.0520833 39.8395833 26.1354167 39.7041667 27.1645833 39.4333333 27.95 39.24375 28.68125 38.8104167 29.2229167 38.2145833 29.7375 37.6458333 30.0354167 36.9145833 30.0625 36.15625 30.0354167 35.425 29.7916667 34.69375 29.33125 34.0979167 28.9520833 33.5291667 28.2479167 33.0416667 27.2458333 32.7708333 26.8395833 32.6625 26.4604167 32.6083333 26.0541667 32.5541667 25.5125 32.5 24.9979167 32.4729167 24.45625 32.4729167L20.8270833 32.4729167zM40.1375 23.0208333L44.8770833 23.0208333C45.1479167 23.0208333 45.3645833 23.2104167 45.4458333 23.4541667 45.5541667 23.64375 45.6354167 23.8604167 45.6625 24.0770833 45.7166667 24.3479167 45.7708333 24.6458333 45.7979167 24.9166667 45.825 25.2145833 45.8520833 25.6479167 45.8520833 26 46.6645833 25.025 47.6395833 24.1854167 48.75 23.5625 49.9145833 22.9125 51.1604167 22.75 52.6770833 22.75 52.8666667 22.7229167 53.0291667 22.8583333 53.05625 23.0479167 53.05625 23.075 53.05625 23.1020833 53.05625 23.15625L53.05625 28.35625C53.05625 28.5729167 52.9208333 28.6541667 52.6229167 28.6541667 51.7020833 28.6 50.78125 28.6541667 49.8604167 28.84375 49.075 29.00625 48.3166667 29.25 47.5854167 29.575 46.9895833 29.81875 46.4479167 30.14375 45.9875 30.5770833L45.9875 44.3083333C45.9875 44.5791667 45.8791667 44.6875 45.6354167 44.6875L40.4895833 44.6875C40.2729167 44.7145833 40.0833333 44.5791667 40.05625 44.3625 40.05625 44.3354167 40.05625 44.28125 40.05625 44.2541667L40.05625 29.3583333C40.05625 28.7083333 40.05625 28.03125 40.0291667 27.3270833 40.0020833 26.6229167 40.0020833 25.91875 39.975 25.2145833 39.9479167 24.5916667 39.89375 23.9416667 39.8125 23.31875 39.7854167 23.1833333 39.8666667 23.0479167 40.0020833 23.0208333 40.05625 23.0208333 40.0833333 23.0208333 40.1375 23.0208333z"/>
  </g>
</svg>
